<?xml version="1.0" standalone="no"?>
<!DOCTYPE svg PUBLIC "-//W3C//DTD SVG 1.1//EN" "http://www.w3.org/Graphics/SVG/1.1/DTD/svg11.dtd" >
<svg xmlns="http://www.w3.org/2000/svg">
<metadata></metadata>
<defs>
<font id="japaneseregular" horiz-adv-x="0" >
<font-face units-per-em="2048" ascent="1638" descent="-410" />
<missing-glyph horiz-adv-x="1024" />
<glyph />
<glyph horiz-adv-x="682" />
<glyph unicode=" "  horiz-adv-x="1024" />
<glyph unicode="&#x09;" horiz-adv-x="1024" />
<glyph unicode="&#xa0;" horiz-adv-x="1024" />
<glyph unicode="!" horiz-adv-x="1744" d="M-43 -315q498 332 672 768q-20 0 -99 -11q-61 -6 -98 -6l-59 10l-45 39q61 0 159 11q123 10 158 12q33 82 33 158q0 35 -6 69q133 -14 170 -65q-2 -23 -58 -125q66 2 209 33q133 31 207 30q109 0 139 -63q-39 -18 -268 -41q-258 -27 -307 -37l-109 -203q57 6 195 51 q125 43 194 43q33 0 89 -30q43 -23 84 -47l10 -25l-10 -23q-57 -16 -125 -112q-47 -74 -95 -150q184 -150 349 -207q143 -51 399 -71q-125 -72 -383 -72q-94 0 -172 55q-45 33 -125 123t-129 125q-322 -213 -623 -213l-47 23q367 31 608 243q-100 109 -301 179 q-90 -121 -284 -285q-229 -193 -332 -186zM111 545q0 18 36 61q49 57 70 96q37 70 37 156q0 20 -4 43q18 -18 63 -121q33 -16 80 -16q174 0 512 78t512 78q170 0 266 -156q-61 -18 -187 -46t-187 -48q82 92 108 172q-205 0 -651 -66q-25 -4 -178 -37q-111 -23 -182 -22 q-41 0 -93 22q-4 -84 -41 -174q-47 -113 -108 -129q-53 23 -53 109zM393 1077q55 -4 137 -47q95 -47 95 -96q0 -18 -21.5 -40t-42.5 -22q-8 0 -18 15q-47 78 -66 102q-37 47 -84 88zM455 1157q414 156 477 217q20 23 41 43q31 35 41 35q39 0 120.5 -46t112.5 -79 q-16 -16 -194 -49q-111 -23 -224 -43q-2 0 -167 -51q-104 -33 -168 -29zM594 170q70 -4 166 -55q150 -82 160 -84q69 78 94 250q-170 -53 -264 -54q-49 0 -105 23q-8 -18 -51 -80zM733 1139q35 -4 102.5 -49t67.5 -76q0 -29 -17.5 -54.5t-43.5 -25.5q-12 0 -23 31 q-25 59 -86 174zM993 907q111 135 160 275q18 51 31 51q31 0 86 -21q63 -24 63 -47q0 -14 -51 -45q-23 -12 -145 -123q-100 -90 -144 -90z" />
<glyph unicode="&#x22;" horiz-adv-x="1878" d="M113 -141q299 0 813 75v377q-238 -33 -258 -32q-82 0 -154 49q84 6 207 32q201 45 205 46q0 180 -27 348q-287 -10 -293 -11q-88 0 -149 54q111 12 440 106q291 80 430 80q135 0 174 -63q-35 -37 -246 -84q-139 -31 -280 -60q63 -39 84 -92q-31 -160 -31 -264 q27 4 102 26q63 20 105 21q80 0 141 -78q-119 -23 -352 -72l-6 -370q35 4 291 41q176 27 293 26q78 0 161 -45q92 -49 115 -119h-2l-23 -12q-84 0 -251.5 21.5t-251.5 21.5q-287 0 -535 -31q-66 -8 -264 -59q-164 -41 -264 -41q-70 0 -174 109zM772 1358q197 0 279 -56.5 t82 -115.5q0 -37 -20.5 -65.5t-57.5 -28.5q-14 0 -135 120q-74 72 -148 146z" />
<glyph unicode="#" horiz-adv-x="1681" d="M-20 -279q311 117 512 429q180 283 225 636q-31 -4 -137 -26q-84 -16 -138 -17q-86 0 -120 84q129 0 415 45q35 252 35 340q0 35 -29 91q-25 45 -49 88q174 0 234 -113q-33 -127 -82 -389q41 4 141 37q90 27 143 26q45 0 114 -36.5t89 -73.5q-41 -147 -100 -492 q-53 -319 -109 -485q-18 -57 -74.5 -97t-121.5 -51q-53 41 -131 148.5t-131 148.5q55 -29 110 -55q84 -41 107 -41q125 0 202 387q31 162 66 500l-16 26q-35 10 -35 11q-141 0 -271 -21q-8 -201 -118 -454q-117 -272 -287 -447q-195 -203 -401 -203zM74 281q0 25 67 92 q94 94 123 131q68 88 68 162h20q17 -120 17 -140q0 -111 -68 -219q-76 -121 -182 -121q-45 0 -45 95zM1286 512q135 0 252 -59q143 -72 143 -193q0 -90 -53 -90q-10 0 -26 18q-47 57 -142 166q-53 53 -174 158z" />
<glyph unicode="$" horiz-adv-x="1695" d="M0 80q51 18 287 90q176 53 278 106q6 104 6 211q0 84 -6 170q-276 -94 -301 -94q-88 0 -112 66l20 28q186 16 197 17q113 14 192 43q-6 119 -12 235q-18 139 -82 217q207 0 207 -129q0 -254 -19 -620q-16 -309 -32 -621l-31 -12q-57 35 -57 133q0 68 26 283 q-80 -39 -205 -127q-137 -98 -198 -133q-156 61 -158 137zM872 1358q72 -8 129 -47q72 -45 72 -109q0 -248 -61 -624q94 47 207.5 176t128.5 135q100 -20 135 -98q-18 -25 -217 -140q-223 -129 -254 -151q4 -45 4 -101q0 -25 -2 -69v-64q0 -131 47 -182q61 -70 242 -70 q172 0 237 127q29 55 72 279q4 -84 33 -205q26 -101 51 -201q-68 -109 -346 -108q-256 0 -357 119q-84 96 -84 309q0 80 17.5 278.5t17.5 309.5q0 254 -72 436z" />
<glyph unicode="%" horiz-adv-x="1953" d="M37 68q209 96 389 280q199 203 246 402q-96 -23 -289 -66q-84 27 -107 76q158 10 418 61q39 113 39 156l-8 53q-45 -12 -158 -65l-10 4q-25 47 -25 98l7 31l90 10q125 158 137 174q70 104 74 203q150 0 180 -66q-14 -16 -51 -31.5t-49 -29.5l-213 -250q154 23 462 57 q-33 45 -106 129q92 0 180 -47q96 -51 123 -131l-16 -47l-35 -25q-45 23 -82 64q-180 0 -481 -64q113 -61 112 -110q0 -23 -39 -92q61 6 258 45q162 33 260 33q123 0 179 -101q0 -12 -60 -16q-35 -2 -76 0l-253 4l-115 -2q186 -254 409 -387q171 -100 527 -209 q-57 0 -171 -7t-171 -7q-74 0 -142 8q-109 76 -268 274q-139 170 -229 320q-57 -8 -176 -21q-84 -207 -301 -442q-252 -274 -433 -268zM420 -469q518 195 659 619q66 -9 158 -70q-457 -559 -817 -549zM537 170q240 174 325 438q35 -4 76 -18q51 -20 53 -45h2 q-14 -78 -188 -217q-143 -117 -252 -172zM565 -57q129 27 254 172q98 121 199 243q57 -12 94 -63h-2q-4 -49 -227.5 -205t-282.5 -156z" />
<glyph unicode="&#x26;" horiz-adv-x="1918" d="M72 526q178 20 532 72v510q0 106 -94 197l20 22q143 0 213 -78q-33 -117 -32 -127v-420q268 240 424 609l184 -109q-6 -33 -279 -266q-246 -213 -329 -270v-48q82 8 356 68q219 49 358 49q174 0 226 -78q-287 -33 -863 -92q381 -336 506 -415q260 -164 625 -207v-13 q-129 -8 -258 -18q-156 -10 -260 -10q-29 0 -328 299q-348 350 -362 362v-674q88 39 276 156v-18q-51 -47 -215 -226q-131 -143 -231 -209q-70 63 -105 168q27 23 82 43q66 27 86 39v688q-268 -63 -344 -63q-117 0 -188 59z" />
<glyph unicode="'" horiz-adv-x="1966" d="M27 -29q352 328 522 779q-39 -8 -205 -82q-156 -70 -166 -70q-57 0 -127 102q336 0 535 183q41 0 92 -27t74 -59q-10 -18 -46 -43t-47 -43l-124 -211q280 0 280 -111q0 -55 -47 -78q-41 20 -102 76q-68 59 -101 80q33 -168 33 -182q0 -510 -111 -568q-31 37 -30 191 q0 106 16 268q16 135 31 270q-176 -305 -453 -477zM426 1294q61 0 139 -10q102 -12 123 -35q39 -39 39 -98q0 -70 -27 -70q-12 0 -22 9q-47 39 -137 118q-18 16 -115 86zM653 -29q164 113 271 275q113 172 129 358q38 -21 104 -74q-4 -27 -35 -88q-170 -350 -469 -471z M860 1077q20 8 43 8q14 0 44 -6t48 -6q82 0 234.5 51.5t232.5 51.5q33 0 100.5 -42t92.5 -73q0 -2 -86 -108.5t-101 -149.5l31 -39q-18 -33 -84 -45q-4 -2 -102 -12q57 -33 57 -129q0 -61 -14.5 -187.5t-14.5 -187.5q0 -111 39 -150t150 -39q219 0 293 84q51 57 106 291 q2 -41 21 -147q16 -97 16 -152q0 -117 -121 -160q-76 -27 -221 -26q-213 0 -295 84q-66 68 -65 217q0 45 8 154.5t8 170.5q0 8 -27 177q-63 -6 -190 -37v-41q-6 -14 -25 -15l-6 4q-37 63 -80 232q-39 154 -92 227zM1012 1020q14 -98 57 -293q76 6 221 39q33 12 101 31 l67 243l-26 21q-20 0 -215 -27q-25 -4 -205 -14z" />
<glyph unicode="(" horiz-adv-x="1826" d="M-76 -111q338 141 656 650q-43 -4 -179 -31q-113 -23 -180 -23l-74 21l-38 51q193 12 247 18q139 12 248 33q41 96 53 189q-35 -2 -112 -21q-70 -16 -111 -16l-67 16l-39 35q59 14 166 27q117 12 165 22q14 76 15 195q-23 -2 -96 -21q-59 -14 -99 -14l-63 14l-41 53 q100 4 299 29v66q0 145 -35 254q78 -8 113 -17q66 -18 90 -61q-20 -72 -54 -215q39 4 150 39q94 31 152 30q135 0 159 -69l-14 -17q-92 -16 -227 -28q-113 -10 -228 -21l-18 -198q41 6 156 36q98 27 157 27l62 -16l34 -33l-18 -27q-135 -16 -401 -55q-14 -100 -45 -186 q78 8 313 65q197 49 313 49q80 0 133 -69l-22 -23q-180 -14 -541 -55q486 -482 924 -537q-231 -51 -326 -51q-86 0 -336 246q-43 45 -311 332l-180 -19q-92 -188 -322 -418q-264 -266 -428 -256zM473 -10q-2 172 10 278q20 0 61.5 -7t63.5 -7q68 0 201 28.5t203 28.5 q82 0 100 -131q4 -24 4 -188q0 -430 -102 -430q-12 14 -37 121q-20 82 -72 81q-68 0 -325 -30l2 -58q0 -80 -66 -98q-39 35 -39 129q0 -25 -4 283zM578 31q84 0 145 6q14 2 57 14q35 10 56 10q74 0 73 -51q0 -25 -147 -35q-92 -4 -184 -6v-174q33 2 170 15q104 10 170 10 q41 0 79 -4q9 115 9 348q0 70 -58 69q-74 0 -186 -14q-174 -23 -184 -22v-166z" />
<glyph unicode=")" horiz-adv-x="1703" d="M-29 -188q313 150 436 324.5t162 520.5q-106 -29 -213 -59q-125 -33 -215 -33q-66 0 -98 68q88 39 262 57q223 25 273 37q-4 219 -13 317q-16 174 -61 314q70 0 137 -23q88 -31 98 -86q-33 -104 -43 -245q-4 -39 -10 -250q66 10 250 63q158 45 252 45q90 0 143 -82 q-20 -45 -299 -73q-176 -18 -354 -37l-8 -144q207 -330 428 -487q233 -168 606 -238v-10q-414 -20 -383 -20q-141 0 -279 127q-104 96 -221 280q-84 137 -170 275q-80 -254 -225 -428q-186 -217 -414 -213h-41z" />
<glyph unicode="*" horiz-adv-x="1951" d="M39 -66q399 63 799 127q483 78 802 78q269 0 312 -78q-27 -68 -205 -67q-47 0 -123 5t-90 5q-307 0 -893 -92q-115 -20 -229 -43q-139 -27 -234 -27q-55 0 -139 92zM412 1108q35 0 101.5 -15.5t100.5 -15.5q119 0 343.5 78t340.5 78q33 0 146 -57q106 -55 135 -84 q-16 -37 -53 -95q-43 -66 -58 -90q-27 -51 -104 -319q-68 -236 -111 -277l-28 13q-18 33 -60 96q-109 0 -458 -62q2 -72 -45 -71q-20 20 -26.5 55t-10.5 68l-99 483q-10 43 -53 108q-49 72 -61 107zM625 1020q20 -111 30 -277q27 6 211 64q164 53 183 53q84 0 127 -33 q-2 -51 -228 -96q-18 -4 -280 -47q12 -88 39 -264q57 4 202 39q127 31 203 30q14 0 109 -28q37 154 71 305q43 186 43 307q0 12 -19.5 30.5t-31.5 18.5q-131 0 -332 -39q-281 -57 -327 -63z" />
<glyph unicode="+" horiz-adv-x="1947" d="M43 657l281 60q23 4 53.5 42t54.5 38q33 0 72 -11q53 -14 53 -36q0 -16 -33 -76q-39 -66 -45 -82q-31 -94 -30 -524q41 14 102 49q75 43 100 53q-43 -41 -149 -184q-90 -121 -162 -174q-31 20 -53.5 62t-24.5 79l109 74q23 109 22 282q0 57 -3 174t-3 174 q-203 -70 -240 -69q-68 0 -104 69zM299 1264q25 2 70 2q78 0 153 -15q113 -22 113 -63q0 -27 -21.5 -58.5t-46.5 -31.5q-18 0 -268 166zM541 -195q145 113 272 398q-78 61 -240 155l68 2q43 2 100 -34l90 -62q23 55 33 125q-18 33 -67 96.5t-68 102.5q23 106 62 319 q-84 -35 -123 -35q-27 0 -64 48q41 10 234 100q61 -23 125 -86q-18 -41 -97 -160q-66 -96 -80 -166q4 -6 97 -106q70 -76 69 -111q0 -35 -18 -88q-14 -43 -31 -86q244 -154 502 -223q209 -55 543 -78q-102 -33 -203 -66q-129 -39 -207 -38q-123 0 -336 135 q-160 104 -317 209q-150 -305 -344 -351zM1010 281q0 39 22.5 109.5t22.5 109.5q0 49 -45 200h28q55 0 86 -53q25 -45 25 -102q0 -45 -12 -109q-10 -53 -21 -108l172 37v628q51 0 70 -8q29 -12 43 -55q-39 -133 -37 -178l2 -52q209 78 221 78q25 0 59.5 -22.5t45.5 -44.5 q-29 -27 -154 -47q-86 -10 -172 -21v-274q186 33 203 32q39 0 81 -19t52 -52l-12 -15q-78 -16 -242 -26t-246 -29q-41 -18 -127 -47q-66 23 -65 68zM1071 920q174 119 367 301q16 18 53 43q92 -80 94 -125q-219 -102 -493 -232z" />
<glyph unicode="," horiz-adv-x="1761" d="M-51 125q197 180 303 330q129 184 188 405q106 -25 121 -84h2q-35 -70 -106 -172q-90 -131 -113 -168q47 -76 47 -219v-426q0 -20 -20.5 -62t-36.5 -42q-29 0 -54.5 25.5t-25.5 51.5q0 43 16.5 125t16.5 125v355q-80 -68 -160 -133q-96 -74 -178 -111zM141 780 q111 123 224 246q119 154 118 301q63 -2 156 -108h2q-145 -170 -227 -248q-139 -131 -273 -191zM500 -141q0 18 71.5 127.5t81.5 152.5q10 -39 11 -90h2q0 -82 -21 -158q-29 -111 -82 -110q-29 0 -46 24.5t-17 53.5zM645 721q27 23 68 22q4 0 16 -8t19 -8q39 0 217 49 q29 70 41 105q18 57 22 106q-201 -29 -207 -29q-20 0 -73 56q98 8 294 37q37 141 37 276q0 25 -8 62q-12 55 -12 63q156 -55 172 -94q-35 -92 -94 -281q168 51 213 51q86 0 125 -61q-27 -27 -168 -43q-186 -20 -189 -20q-39 -113 -86 -207q51 8 228 57q141 39 229 39 q47 0 95.5 -41t66.5 -88q-25 -45 -105 -135q-72 -82 -98 -140l-25 -16l-45 16l8 41q-115 -8 -309 -34q-248 -33 -276 -54q-18 -29 -74 -67q-6 63 -39 174q-35 121 -43 172zM748 682l36 -182l136 26l-25 174zM752 276q115 12 340 52q12 2 102 30q74 23 96 23q123 -1 123 -64 q0 -18 -72 -28q-45 -2 -90 -6q-53 -4 -204 -35q-127 -27 -203 -27q-92 0 -92 55zM778 109q90 -184 154 -246q100 -98 270 -99q231 0 232 84q0 29 -50 140q43 -47 125 -94q92 -51 127 -82q0 -125 -325 -125h-129q-147 0 -207 47q-47 35 -123 178q-45 84 -74 197zM975 721 l6 -184l162 26l8 187zM1026 170q203 -59 203 -139h2q0 -61 -45 -62q-25 0 -86 86q-37 57 -74 115zM1198 571q111 16 170 17q16 0 49 -10q58 206 58 202q0 25 -31 25q-8 0 -180 -19q-18 -72 -66 -215zM1401 233q113 -12 174 -26q113 -27 154 -70q32 -35 32 -49q0 -18 -16 -46 t-31 -28q-35 0 -155 95q-80 61 -158 124z" />
<glyph unicode="-" horiz-adv-x="1609" d="M37 657l14 19h135q182 219 183 385q0 23 -9 55q-12 47 -12 53q170 0 203 -61q-23 -61 -281 -408q29 6 142 54q100 43 123 43q29 0 92 -41q57 -37 80 -64h2q-6 -23 -39 -88q-25 -55 -25 -92q0 -31 7 -143.5t7 -180.5q0 -258 -92 -346q-25 29 -43 86q-25 70 -35 92 q-49 -14 -120 -22q-61 -4 -123 -10q0 -135 -51 -146l-15 6q-37 82 -43 203q2 -29 2 211q0 236 -102 395zM209 625l18 -267q23 6 84 39q51 29 88 29q68 0 68 -27q0 -18 -102 -57q-63 -23 -127 -47v-250q35 0 103.5 17.5t102.5 17.5q14 0 91 -35q31 96 32 307q-2 -205 -2 299 h2q-4 33 -30 33q-66 0 -166 -25q-127 -31 -162 -34zM690 504q393 391 393 817q188 -20 246 -78q-8 -27 -50 -57.5t-54 -46.5l-240 -375q63 6 209 53q135 43 211 43q41 0 110.5 -37.5t94.5 -72.5q-6 -35 -43 -97q-31 -51 -35 -108l-8 -332q-8 -211 -54 -338 q-61 -170 -202 -252q-51 45 -115 150q-78 127 -106 161q160 -55 215 -55q166 0 170 623l2 186l-9 47q-23 8 -22 8q-59 0 -179 -16t-180 -16l-83 24q-63 -113 -240 -235zM891 500q166 -12 225 -109q25 -37 25 -63h2q-2 -25 -20.5 -51.5t-43.5 -26.5q-16 0 -53 57 q-23 37 -45 76q-35 51 -90 117z" />
<glyph unicode="." horiz-adv-x="1789" d="M-61 -31q76 23 337 156q14 276 13 319l-2 56q-49 -20 -99 -39q-74 -29 -92 -29q-61 0 -84 57q31 18 133 46q125 31 146 36l2 99q8 317 -74 499q53 -4 109.5 -48t56.5 -91q0 -74 -13.5 -219t-13.5 -219q6 2 152 74q73 -1 98 -58l-14 -18q-78 -20 -236 -64v-370l217 108 l17 -14q-127 -102 -256 -203q-154 -121 -270 -180q-80 25 -127 102zM492 328l8 12q82 33 196 96q0 152 -41 391q139 -35 140 -157q0 -41 -31 -185q41 14 102 50q80 43 101 53v534q0 123 -90 262q72 0 137 -20q92 -29 92 -86q0 -109 -25 -313q-25 -213 -26 -314 q51 29 143 96.5t141 94.5q100 -18 136 -88q-29 -119 -97 -318q-84 -244 -127 -280q-39 27 -73 94q-55 106 -56 108l78 -30q63 23 90 157q12 100 23 199l-13 27l-28 10q-47 -12 -113 -57q-53 -35 -104 -72l6 -191q8 -240 -64 -299q-47 31 -47 170q0 55 8.5 147.5t8.5 110.5 q-55 -20 -203 -110q4 -233 8 -264q14 -133 80 -197q80 -76 254 -76h137q274 0 363 105q78 92 86 370q12 -125 98 -389q-80 -188 -576 -188q-246 0 -353 56.5t-140 191.5q-23 96 -25 356l-196 -74z" />
<glyph unicode="/" horiz-adv-x="1716" d="M-33 -219q326 324 326 665q94 -18 145 -88q-2 -33 -22 -73q-20 -33 -39 -68q131 -53 274 -156q12 201 13 306q0 182 -37 258q-31 -10 -62 -21q-39 -12 -63 -12q-72 0 -109 67q123 14 543 138l55 -15l39 -65q-23 -18 -160 -45q-92 -16 -182 -33q35 -20 94 -76 q-33 -82 -32 -205q41 2 127 33q80 29 122 29l50 -12l32 -62q-23 -31 -155 -39q-88 -2 -176 -6q0 39 -15 -287q213 -102 482 -153q128 -25 499 -66q-55 -39 -227 -76q-156 -35 -242 -34q-125 0 -301 98q-115 63 -311 209q-205 154 -275 194q-49 -98 -167 -237 q-143 -170 -211 -168h-15zM82 750q0 37 66.5 130t66.5 164h16q2 -55 33 -92q49 8 455 107q295 70 450 69q31 0 121 -64t115 -95q-29 -29 -156 -78q-156 -59 -176 -70q96 150 96 178l-6 19l-14 12q-190 0 -449 -45q-221 -41 -442 -84q-8 -211 -129 -244q-47 20 -47 93z M516 1327q180 0 301 -106q27 -21 27 -35q0 -31 -29 -59.5t-59 -28.5q-8 0 -240 229z" />
<glyph unicode="0" horiz-adv-x="1564" d="M127 915l483 64q76 160 76 346q0 63 -10 127q190 -33 235 -125q-31 -63 -100 -166q-76 -113 -102 -162q74 8 264 62q170 47 264 47q129 0 172 -94q-31 -37 -109 -41q59 4 -120 4q-139 0 -508 -57q-121 -256 -291 -478q137 16 410 58q0 184 -52 297q131 0 172 -62 q-37 -94 -34 -153l2 -70q47 4 157 33q100 27 160 26q102 0 150 -71q-33 -57 -213 -74q-127 -6 -254 -10q2 -92 17 -283.5t15 -290.5q0 -76 -37 -139q-39 -74 -104 -94q-57 27 -141 117q-98 100 -137 127l235 -37l49 34q35 92 35 250q0 49 -5 152.5t-5 157.5q-8 -2 -195 -23 q-121 -14 -188 -41q-49 -29 -156 -70q-74 33 -98 130l4 10q37 4 111 20q72 25 290 471q-49 -6 -178 -37q-115 -29 -176 -28q-16 0 -46 26.5t-42 46.5zM147 -141q0 12 99 108q109 109 119 123q46 61 77 143q0 -147 -47 -278q-66 -174 -184 -174q-29 0 -46.5 25.5t-17.5 52.5z M1112 203q250 -41 393 -193q60 -61 60 -92q0 -29 -29 -66.5t-55 -39.5q-70 55 -187 188q-147 166 -182 203z" />
<glyph unicode="1" horiz-adv-x="1691" d="M0 -213q256 139 512 416q299 324 299 557q-68 -8 -311 -62q-190 -41 -312 -41q-119 0 -157 78q287 29 854 103q51 8 295 69q182 45 299 45q57 0 118.5 -31.5t94.5 -78.5q-35 -39 -377 -51q-215 -6 -428 -11q63 -18 63 -73q0 -43 -59 -142q123 -10 244 -22 q147 -31 178 -137q-47 -182 -162 -414q-152 -305 -262 -307q-29 29 -79 138t-93 154q74 -35 231 -92q55 27 129 230q70 190 70 270q0 104 -289 127q-209 -295 -369 -453q-260 -256 -489 -272zM684 1294h55q310 3 310 -151q0 -98 -52 -99q-20 0 -88 64q-45 43 -88 84 q-39 33 -137 102z" />
<glyph unicode="2" horiz-adv-x="1771" d="M-80 467q250 272 348 420q170 256 185 504q139 0 139 -91h2q0 -72 -80 -213q-59 -111 -129 -198q47 -39 47 -78v-748q0 -313 -76 -313q-35 0 -53 70q-12 47 -12 98q0 43 12 109q16 90 19 108q27 219 34 707q-147 -152 -198 -203q-113 -111 -211 -186zM541 -205 q143 109 225 270.5t88 340.5q-63 -16 -135 -62q-80 -49 -115 -63q-29 16 -29 59q0 35 27 360l74 -2l184 23q0 150 -6 225q-98 -6 -184 -28l-45 61l225 20q0 217 -92 295q72 -2 96 -6q66 -10 82 -39q-8 -55 -8 -123l2 -106l188 31q-2 113 -4 225q-10 121 -76 209 q57 -4 120 -35t85 -76q-29 -59 -45 -145l-20 -152q39 4 133 33q84 29 131 29q45 0 97 -28t60 -67q-18 -39 -84.5 -101t-87.5 -101l33 -51q-90 -12 -270 -41q4 -16 14 -220q39 4 180 29q113 18 185 19q137 0 203 -111q-61 -209 -101 -289q-80 -162 -211 -209 q-35 141 -110 234q96 -45 135 -45l35 12q33 51 53 137q16 74 33 146l-13 32l-22 15l-371 -23q16 -403 17 -676q0 -49 -25 -125q-27 -82 -57 -114q-39 74 -39 231q0 115 14 334q16 227 18 334l-196 -29q0 -199 -92 -375q-98 -186 -267 -276zM662 610q0 -33 9 -96t9 -94 l178 41l2 215l-188 -25q-10 -14 -10 -41zM930 485q65 6 198 33v217l-198 -35v-215zM930 735q27 12 98 27.5t96 13.5q0 109 -6 217l-188 -30v-228zM1190 797l160 30q8 27 30 80q70 113 70 123q0 6 -14.5 14.5t-20.5 6.5l-225 -31v-223z" />
<glyph unicode="3" horiz-adv-x="1738" d="M-49 -272q270 41 475 274q199 225 225 502q-49 -6 -194 -41q-121 -27 -195 -27q-70 0 -123 49q88 39 256 58q221 25 267 35q20 242 20 294q-8 0 -96 -20q-57 -14 -97 -14q-84 0 -149 69q160 10 338 56q0 340 -74 489q141 -31 203 -78q-10 -254 -21 -391q41 4 136 35 q86 27 135 26q25 0 68.5 -20t54.5 -41q-35 -33 -187 -63q-104 -18 -207 -37q-6 -94 -20 -285q53 4 176 39q111 33 176 33q127 0 187 -62q-25 -45 -258 -71q-152 -12 -304 -25q211 -348 406 -508q225 -188 590 -270q-217 -33 -353 -33q-158 0 -370 283q-141 211 -283 422 q-92 -283 -250 -463q-197 -225 -454 -226z" />
<glyph unicode="4" horiz-adv-x="1734" d="M-45 45q410 410 520 735q-29 -8 -196 -73q-127 -49 -193 -50q-49 0 -111 93q94 6 322 73q221 66 254 66q78 0 115 -74q-25 -41 -109 -135q-72 -84 -100 -141l32 -39q57 -2 117 -33q70 -37 70 -86h2l-10 -29l-23 -12q-33 8 -80 57q-57 59 -73 70v-655q0 -72 -60 -91 q-70 39 -70 127q0 27 15 68q16 53 18 68q18 98 19 282v191q-268 -299 -453 -426zM317 1294q328 -6 328 -151q2 -51 -51 -51q-12 0 -37 15t-59 50q-78 72 -181 137zM709 500l12 12q25 -2 110 -55q84 10 351 71q223 49 348 50q47 0 116 -41t89 -84q-2 -10 -64 -271 q-37 -158 -47 -274q-4 -45 -27 -84q-47 -86 -110 -107q-27 31 -51 105q-33 92 -43 112q-98 0 -246 -16q-240 -25 -244 -24l4 -46q2 -39 -26 -69l-39 -10l-25 12q-10 156 -45 469q-23 82 -63 250zM815 920l23 2q20 0 102 -33q49 8 242 67q180 57 202 58q35 0 94.5 -34 t59.5 -65q0 -10 -65 -71q-74 -68 -82 -80q39 -25 39 -51l-5 -17q-264 -25 -421 -57q0 -45 -52 -47q-29 84 -59 168q-35 96 -78 160zM842 406q35 -147 51 -453q78 12 233 31l2 198q-96 -27 -124 -26q-47 0 -64 47q92 16 188 41v192q-2 0 -286 -30zM909 1151v14 q188 33 369 103q72 27 96 26q103 0 119 -61q-16 -35 -219 -76q-176 -35 -252 -35q-86 0 -113 29zM954 854l33 -154q49 4 146.5 28t148.5 26q70 96 70 129q0 25 -27 24q-76 0 -186 -20q-92 -16 -185 -33zM1204 -6q135 20 203 20q31 0 50.5 -49t37.5 -49l6 2q31 109 31 549 l-8 25q-6 4 -19 8q-55 0 -151 -19q-109 -20 -150 -24q33 -27 33 -51q0 -27 -14 -72q-16 -51 -19 -70q6 0 70 19q43 12 72 12q63 0 79 -51q-10 -31 -100 -39q-61 0 -121 -2v-209z" />
<glyph unicode="5" horiz-adv-x="1771" d="M-80 -158q199 98 285 158q139 98 227 233q31 66 111 187q70 0 112 -27q-12 -55 -61 -112q49 6 199 45q123 33 200 32q78 0 125 -57q-29 -70 -94 -168q-86 -131 -102 -162q338 -168 850 -268q-25 -4 -218 -49q-131 -31 -219 -31q-78 0 -166 58q-53 35 -149 121.5 t-141 115.5q-127 -109 -293 -174q-172 -70 -334 -70l-88 19q408 84 631 284q-111 106 -299 179q-150 -160 -254 -224q-145 -90 -322 -90zM113 879q254 154 413 573q125 0 166 -57q-27 -49 -84 -115q-76 -90 -92 -111q164 39 326 78q197 45 327 45q94 1 123 -71 q-2 -20 -75 -27h-99q-223 -6 -653 -86q-119 -123 -156 -152q-98 -78 -196 -77zM414 915q0 41 41 46q-20 -2 71 -3q88 0 256 43t252 43q25 0 85.5 -50.5t60.5 -73.5q0 -20 -27 -84t-57 -187q-33 -131 -54.5 -185t-68.5 -54q-33 0 -33 120q-8 0 -172 -8q-115 -4 -164 -22 q-16 -14 -51 -33l-23 25q-12 12 -30 120q-25 127 -28 138.5t-32 89.5q-27 72 -26 75zM526 193q176 -76 301 -162q23 29 71 125t48 125q-129 -14 -387 -48zM543 909q0 -29 8 -87t8 -87q137 10 227 47q33 14 37 15q98 0 99 -47q0 -27 -156 -48q-96 -8 -193 -18l21 -147 q176 20 362 51q14 14 39 96q39 144 39 240q0 51 -65 51q-76 0 -426 -66z" />
<glyph unicode="6" horiz-adv-x="1755" d="M-66 -219q424 92 676 338q-184 129 -458 209q37 31 94 30q76 0 399 -182q49 86 57 230l-182 -25l-45 -45q-66 186 -207 553q33 20 62 20q18 0 40.5 -10t30.5 -10l332 35l4 86q2 16 -22 172q-82 -18 -246 -49l-78 69q74 12 322 88q201 63 321 64q145 0 191 -60 q-31 -72 -434 -102l63 -53q-16 -61 -33 -187q57 6 189 52q119 41 186 40q98 0 186 -124q-45 -111 -139 -277q-127 -223 -151 -268l-19 -8l-33 8l-20 37l4 30l-217 -16q0 -178 -74 -297q225 -170 484 -258q223 -78 538 -117q-279 -96 -403 -96q-166 0 -355 143 q-150 127 -299 254q-197 -160 -352.5 -215t-411.5 -59zM418 842q37 -109 92 -410l205 29q8 80 8 190q-25 0 -75 -11t-75 -11q-16 18 -47 53q80 6 197 35q8 29 8 86q0 25 -4 69zM811 477l233 19q41 106 80 211q56 149 56 208q0 18 -35 19q-152 0 -318 -45v-154 q18 2 58.5 15.5t60.5 13.5q76 0 98 -29q0 -31 -94 -49q-61 -10 -123 -20z" />
<glyph unicode="7" horiz-adv-x="1740" d="M-51 -246q305 229 395 328q190 209 199 457q-41 -2 -133 -23q-84 -16 -131 -16q-76 0 -179 63q211 23 629 94v545q0 141 -80 213q219 0 219 -88q0 -117 -28 -330q-31 -225 -35 -327q55 6 254 43q156 31 254 30q70 0 119 -61q-39 -33 -574 -84l105 -98q-47 -401 -48 -486 q0 -78 125 -129q100 -43 191 -43q252 0 338 107q72 90 78 346q6 -82 43 -219q43 -158 51 -217q-49 -63 -240 -107q-154 -35 -274 -35q-233 0 -328 148q-70 109 -78 342q-6 190 -14 381q-74 -6 -219 -35q41 -25 59 -41q33 -29 37 -59q-41 -182 -283 -435q-254 -266 -428 -264 h-24zM324 1044q55 -2 144 -61.5t89 -110.5q0 -92 -41 -92q-23 0 -67 76l-58 98q-23 35 -67 90zM879 842q174 137 254 266q10 27 20 53q16 41 27 41q27 0 84 -37q48 -30 73 -57h-2q-6 -49 -456 -266z" />
<glyph unicode="8" horiz-adv-x="1353" d="M16 1182q29 2 81.5 -7.5t74.5 -9.5q160 0 474.5 67.5t475.5 67.5q57 0 130 -35.5t102 -82.5q-2 -12 -15.5 -56.5t-13.5 -48.5v-827q0 -53 12.5 -159.5t12.5 -160.5q0 -76 -33 -151q-37 -84 -98 -117q-25 33 -64 137q-29 82 -102 135q-367 0 -895 -45q2 -135 -64 -172 q-61 63 -61 236q0 31 15 92t15 94v781q0 113 -47 262zM158 -47q82 6 420 49q258 33 419 33q117 0 160 -76l-20 -14l-52 -2l72 -25q57 0 57 127v705q0 154 -30 458l-119 2q-190 6 -455 -39q-223 -39 -448 -79q14 -655 -4 -1139zM236 203q186 12 356 47v303l-156 -35 q-16 -2 -67 60q129 20 223 47q0 123 -14 229q-29 0 -85.5 -6t-86.5 -6q-27 0 -64 41q66 10 258 69q164 51 256 52q76 0 125 -62q-12 -23 -141 -47q-82 -14 -164 -31q16 -27 22 -65q4 -29 0 -76q-4 -63 -4 -72q25 2 71 16.5t71 14.5q76 0 98 -53q-27 -25 -117 -43 q-66 -12 -131 -23v-303q82 12 164 25q100 16 162 16q31 0 66.5 -18t47.5 -45q-20 -35 -108 -35q-326 0 -465 -23q-20 -4 -96 -24q-61 -16 -99 -17q-68 0 -122 64zM811 500q68 -4 109 -11q80 -12 92 -36q8 -14 8 -41q0 -53 -35 -54q-8 0 -27 19q-45 43 -147 123z" />
<glyph unicode="9" horiz-adv-x="1728" d="M-39 -31q0 14 37 56q27 27 51 55q63 84 133 227q55 119 113 238v-33q0 -16 -72 -231q-76 -229 -84 -277q-14 -92 -47 -207q-8 -6 -22 -20q-29 14 -69 85.5t-40 106.5zM-39 780v17q240 0 240 -127h2q0 -27 -18.5 -52.5t-43.5 -25.5q-10 0 -22 14q-23 31 -70 88 q-16 18 -88 86zM147 1186v16q70 0 148 -39q92 -45 92 -108h2q2 -86 -31 -86q-49 0 -211 217zM309 389q45 0 305 37q63 211 64 270q0 27 -29 95q27 6 60 4q53 -4 57 -4q70 0 200 40.5t197 40.5q37 0 103.5 -31.5t87.5 -60.5q-23 -66 -41.5 -128t-24.5 -140q168 33 217 33 q177 -1 224 -99l-5 -10q-61 -10 -157 -6q-133 8 -158 8l-123 -2q-20 -221 -35 -334q129 0 185 -24q80 -35 104 -144l-16 -8q-92 31 -281 74q-53 -354 -213 -428q-25 14 -92 119q-76 113 -100 137h10q4 0 86 -29q90 -31 100 -35q76 51 103 263q-113 27 -273 26 q-352 0 -430 -119q-37 12 -37 121l6 23l15 12l39 -2l18 4q76 92 115 283q-20 -4 -92 -21q-57 -14 -95 -14q-61 0 -94 49zM465 797q342 274 342 587q78 -4 172 -90q-23 -37 -83 -105.5t-85 -111.5q68 6 238 60q152 45 235 45q67 0 100 -43q-27 -43 -290 -86 q-221 -37 -332 -39q-133 -164 -281 -234zM563 92q174 16 584 17q14 59 33 327h2q-168 -12 -504 -47q-53 -160 -115 -297zM698 453q299 23 490 51q0 23 2 74v75q0 158 -49 158q-18 0 -118.5 -22.5t-260.5 -38.5q-4 -53 -31 -148q-29 -100 -33 -149zM838 328q20 0 71.5 -41 t53.5 -60h2q0 -72 -58 -71q-51 0 -69 172zM868 700q27 0 71 -38.5t44 -63.5q0 -61 -31 -61q-39 0 -63 65q-16 47 -21 98z" />
<glyph unicode=":" horiz-adv-x="1843" d="M-63 592l417 65q49 174 49 367q0 145 -32 270q117 2 170 -75q0 -174 -92 -549l202 47v143l23 2q45 0 117 -82q-16 -137 -197 -559q197 -168 197 -221q0 -70 -41 -90q-27 25 -97 121q-53 72 -112 108q-166 -209 -435 -280l-47 16q258 80 426 322l-106 82q-70 53 -70 106 q0 37 16.5 105.5t18.5 101.5q-274 -96 -289 -96q-63 0 -118 96zM387 393q0 -55 145 -117q94 154 119 408l-217 -59q-14 -57 -31 -115q-16 -68 -16 -117zM729 545q158 10 498 63q0 133 -140 213q74 6 150 6q49 90 152 271l-7 16l-16 8q-29 -6 -192 -55q-121 -37 -197 -37 q-43 0 -96 10l-43 37q55 10 286 74q176 51 289 51q133 0 172 -94l-10 -33q-109 -90 -313 -284q57 -84 59 -152q55 4 168 36t174 32q129 0 180 -78l-16 -17q-94 -16 -240 -28q-217 -14 -241 -19q12 -231 12 -405q0 -168 -23 -260q-37 -152 -141 -207q-127 180 -217 241 q188 -16 217 -16q66 41 66 283q0 262 -17 352l-412 -68q-27 -4 -53 17.5t-49 42.5z" />
<glyph unicode=";" horiz-adv-x="1744" d="M-43 -16q303 133 526 673q-49 -8 -190 -57q-123 -43 -191 -43q-90 0 -141 94q258 18 590 99v47q0 47 -8 127q-10 94 -11 127l-290 -68l-37 31q147 4 293 96q131 86 221 217q145 -25 201 -94h16q-33 -37 -174 -86q-176 -61 -201 -74l70 -22l24 -52q-31 -150 -30 -235 q184 68 196 67q92 1 135 -71l-6 -17q-61 -20 -162 -28q-156 -12 -163 -15v-233q100 -6 151 -29q72 -33 96 -110l-12 -31l-29 -10q-41 20 -104 71q-70 59 -102 78l4 -442q0 -14 2 -72.5t2 -93.5q0 -188 -55 -236q-63 41 -64 205q0 139 16 383q18 272 21 383 q-127 -223 -234 -346q-154 -176 -331 -248zM920 696l43 4q23 0 64.5 -15t64.5 -15q76 0 220 47t216 47q47 0 116.5 -35t100.5 -72q-14 -31 -49 -71q-45 -53 -56 -70q-39 -59 -98 -215q90 0 125 -63q-18 -23 -252 -56q-270 -37 -293 -43q4 -39 4 -108q-20 -27 -55 -27 q-27 182 -51 365q-39 260 -100 327zM1092 592q8 -129 24 -389q117 31 352 78q14 124 43 376q-201 -8 -419 -65z" />
<glyph unicode="&#x3c;" horiz-adv-x="1904" d="M86 0q233 166 354 311q170 201 191 424q110 -28 155 -96q-53 -115 -219 -311l54 -29l10 -18v-623q0 -96 -47 -96q-61 0 -62 172q0 94 12.5 281.5t12.5 279.5q-174 -174 -441 -318zM242 1014q59 0 460 26q-14 76 -28 154q-23 78 -84 133q123 -4 168 -53q35 -41 35 -144 q0 -27 -2 -79l368 41q47 172 47 219q0 29 -24 104q123 -8 180 -88q-12 -39 -57 -108.5t-58 -110.5q43 4 137 35q88 27 138 26q121 1 170 -67q-16 -45 -217 -60l-258 -16l-119 -221l-43 -2q8 41 32 110q29 78 35 113q-156 0 -331 -43l2 -92q0 -43 -11 -107l-22 -14l-31 10 l-20 189q-82 -20 -164 -39q-104 -25 -162 -25q-45 0 -93 33t-48 76zM754 102q76 20 260 142q18 274 18 282q0 78 -45 209q53 -2 100 -24q55 -27 72 -72q-55 -262 -55 -338q199 156 319 399q96 -31 140 -108q-53 -115 -465 -365v-71q0 -229 39 -279q49 -66 270 -65 q238 0 326 94q78 86 94 327q6 -51 43 -174q35 -111 35 -170q0 -203 -531 -202q-236 0 -311 141q-49 94 -49 354l-211 -92z" />
<glyph unicode="=" horiz-adv-x="1728" d="M0 233q467 31 821 72q0 162 -43 242q59 0 109 -27q63 -33 63 -84q0 -10 -32 -131q76 6 319 47q199 33 319 33q128 0 173 -90l-64 -45q-125 29 -328 29q-141 0 -419 -15q12 -141 12 -299q0 -385 -90 -434q-35 53 -35 317q0 90 5 234.5t5 167.5q-78 -8 -313 -55 q-195 -39 -316 -39q-76 0 -186 77zM100 692q143 104 279 273q166 205 166 335q0 59 -15 91q141 -9 170 -113q-16 -39 -84 -119q-80 -94 -96 -119q55 -66 55 -98v-403q0 -41 -18 -80q-23 -47 -59 -53q-31 31 -31 157q0 47 12.5 141.5t12.5 143.5t-5 145q-90 -119 -168 -182 q-88 -72 -219 -119zM684 797q152 68 229 118l11 379q2 57 -52 125q80 -6 113 -18q57 -25 57 -90q0 -55 -15 -164t-15 -164q199 115 274 281q96 -61 129 -125q-18 -29 -194 -127q-113 -66 -226 -129v-78q-2 -111 45 -141q33 -25 142 -25q170 0 211 43q35 37 49 207 q2 -47 34.5 -143.5t32.5 -106.5q0 -109 -239 -109q-209 0 -281 58q-82 66 -82 266l-190 -74z" />
<glyph unicode="&#x3e;" horiz-adv-x="1900" d="M90 -152q190 109 383 488q-98 150 -270 334h26q33 0 281 -217q27 94 53 186q31 109 31 188q0 8 -16.5 23.5t-24.5 15.5q-53 0 -167 -43t-171 -43q-68 0 -96 47q68 10 252 72q160 53 245 53q41 0 89 -20q55 -25 55 -60q0 -53 -78 -235q-55 -125 -111 -248 q186 -172 187 -280h2q2 -57 -47 -78q-18 12 -90 114q-82 121 -95 136q-133 -326 -407 -439zM616 -213q242 111 338 274q80 139 80 375q0 90 -10 234q119 -14 170 -92q-47 -53 -55 -89q-6 -49 -13 -100q269 -440 775 -577q-135 -8 -410 -25q-55 35 -193 242q-92 141 -182 282 q-43 -225 -155 -360q-133 -164 -345 -164zM774 563q98 115 197 320q111 229 110 352q0 70 -28 156q174 -31 225 -97q-8 -39 -45 -80q-55 -63 -109 -196q-61 -150 -96 -203q39 8 227 76q174 61 199 61q37 0 111.5 -45t97.5 -80q-47 -49 -154 -112q-117 -68 -159 -107 q59 137 77 223l-12 21l-12 2q-80 0 -205 -37q-160 -45 -205 -53q-25 -43 -88 -106.5t-108 -94.5h-23z" />
<glyph unicode="?" horiz-adv-x="1839" d="M-80 358q762 498 823 1094q94 -27 175 -94l-66 -131q291 -305 440 -418q246 -188 547 -264q-246 -49 -362 -49q-55 0 -326 307q-164 190 -328 383q-371 -612 -889 -846zM199 289q201 25 399 47q231 31 399 67l113 33q74 20 115 21q156 0 174 -51q-37 -59 -324 -87 q-186 -16 -373 -32q55 -39 66 -49q37 -33 39 -68q-45 -59 -152 -143q-119 -92 -159 -138q195 12 579 64q-25 31 -55 88q-41 72 -53 92q338 -207 338 -309t-48 -139q-23 12 -79 94q-37 55 -76 110q-403 -27 -586 -112q-43 -29 -135 -74q-29 10 -55 61q-18 39 -39 80l20 35 l111 10q102 123 145 185q74 106 105 207q-319 -74 -332 -74q-35 0 -76 26.5t-61 55.5zM473 614q135 20 195 31q109 23 192 49q127 45 146 45q31 0 73 -18q51 -20 54 -45h2q-4 -31 -111 -37q-63 -4 -203 -41q-129 -35 -200 -35q-111 0 -148 51z" />
<glyph unicode="@" horiz-adv-x="1677" d="M-18 827q61 0 157 -49q107 -55 107 -108q0 -27 -15.5 -52.5t-40.5 -25.5q-35 0 -110 100q-49 68 -98 135zM33 35q0 20 61 51q72 37 80 47q66 72 227 352l7 -24q-63 -182 -129 -367q-106 -305 -127 -313q-31 31 -75 123t-44 131zM168 1227q197 0 268 -84q29 -33 29 -51 q0 -61 -78 -62q-31 0 -74 47q-29 37 -59 76q-45 45 -86 74zM356 588q98 31 277 47q203 18 278 35l4 329q-184 -63 -311 -92v27q303 129 424 252q27 29 51 59q33 33 66 43q104 -45 158 -119q-33 -37 -170 -92q-98 -37 -197 -73q78 -29 119 -70q-12 -78 -31 -238q68 6 225 56 q141 45 226 45q139 -1 202 -105q-223 -31 -669 -74l-62 -323q45 4 156 35q98 29 155 28q39 0 112 -45t91 -80q-53 -109 -157 -245q35 -20 45 -29q23 -20 28 -43q-20 -33 -262 -57q-152 -14 -303 -27q0 -23 -14.5 -38t-36.5 -13q-29 68 -82 254q-45 162 -92 252l8 8 q29 -2 88 -16.5t94 -14.5q43 0 103 17q6 106 32 317q-55 -6 -209 -39q-129 -29 -206 -29q-100 0 -140 58zM770 217q4 -49 17.5 -149.5t17.5 -151.5q100 0 391 61q61 199 61 250q0 20 -22.5 34.5t-44.5 14.5q-70 0 -210 -29.5t-210 -29.5z" />
<glyph unicode="A" horiz-adv-x="1603" d="M10 1159l37 6q23 0 60.5 -13t60.5 -13q47 0 135 45q123 66 133 69q96 -31 139 -84q-16 -53 -116 -159q-90 -94 -94 -168q133 -221 133 -334q0 -49 -56 -72q-49 27 -139 98.5t-141 98.5q111 -14 223 -35l18 20q-4 23 -45 127q-37 94 -36 115q0 29 47 133q31 70 61 140 l-6 16l-14 8q-88 -33 -269 -80q0 -109 2 -342q2 -225 2 -340q0 -309 -6 -461q-6 -139 -18 -143l-43 -10q-61 37 -62 127q0 35 15.5 104.5t15.5 104.5v960q0 20 -37 82zM463 84q0 35 51 100q41 47 80 92q6 10 33 86q25 68 32 68q33 0 33 -137q0 -104 -49 -176 q-59 -86 -123 -86q-23 0 -40 15t-17 38zM504 735q147 12 442 45q43 6 236 47q145 33 239 33q43 0 92 -29q58 -28 58 -67q-37 -23 -166 -23t-352 -34q27 -139 30 -342v1v-348q0 -223 -133 -301q-41 35 -114 136q-66 92 -119 131q72 -16 217 -54l22 11q10 18 11 18v633 q0 59 -33 92q-78 -12 -154 -25q-96 -16 -153 -16q-66 0 -123 92zM717 1108q158 14 252 39q2 0 123 35q83 26 114 26h2q35 0 76 -22q49 -27 49 -58q-18 -29 -225 -61q-180 -27 -252 -27q-131 0 -139 68zM1182 406q131 -4 260 -64q162 -73 162 -186q0 -86 -48 -95 q-70 53 -188 170q-123 125 -186 175z" />
<glyph unicode="B" horiz-adv-x="1593" d="M12 825q0 27 70 149t70 218h20q6 -72 27 -115q295 29 477 58q57 8 276 65q170 43 277 43q39 0 121 -63.5t102 -102.5q-27 -25 -158 -73q-154 -57 -178 -70l88 174l-26 20q-197 -12 -494 -49q-469 -57 -491 -59q0 -88 -21 -154q-31 -94 -96 -94l-39 8zM23 -121 q319 111 595 416q-8 33 -61 158q-215 -248 -412 -297l-30 10q111 41 229 149q63 59 191 203l-27 64q-113 -53 -346 -146l-47 17q262 82 483 323q-53 -8 -158 -33q-51 10 -82 72q51 8 250 55q154 37 252 37q82 0 127 -59q-57 -37 -174 -51q-92 -8 -184 -17l30 -84 q-14 -63 -112 -92q80 -147 223 -194q150 141 234 325q74 -27 122 -78l-12 -26q-168 -109 -326 -242q147 -109 287 -162q63 -25 244 -71q155 -40 274 -95l-18 -18q-248 -43 -387 -43q-27 0 -254 193q-268 225 -281 233q131 -221 131 -473q0 -330 -172 -330q-51 53 -104 109 q-61 59 -113 96q125 -43 183 -43q96 0 96 154q0 186 -29 278q-321 -342 -525 -342h-14zM520 1391q209 -10 264 -113q4 -6 4 -12q0 -61 -81 -80q-25 35 -76 102q-29 33 -111 103z" />
<glyph unicode="C" horiz-adv-x="1763" d="M-51 -152q213 168 354 402q150 246 178 500q-217 -66 -258 -66q-92 0 -123 80q106 0 404 57q26 217 26 315v7q0 31 -26 184q141 -10 207 -74q-35 -131 -101 -393q178 29 189 29q41 0 100 -23q68 -24 86 -55q-23 -47 -61 -145q-53 -242 -107 -484q-100 -340 -268 -340 q-31 90 -107 267q49 -23 150 -70q94 35 156 338q47 231 47 403l-13 23l-20 8q-49 0 -170 -41q-43 -285 -210 -534.5t-413 -393.5zM1032 764q25 0 71 -14.5t71 -14.5q63 0 185 46t185 46q47 0 118.5 -36.5t100.5 -73.5q-8 -23 -40.5 -56.5t-41.5 -56.5q-39 -96 -88 -344 q59 0 78 -67q-16 -27 -63 -31h2h-78q-98 0 -324 -47q0 -82 -57 -105l-14 13q-12 59 -19 319q-8 244 -20 276q-27 45 -66 146zM1182 682q12 -168 26 -500q45 4 152 39q96 31 149 33q31 297 31 438q0 25 -37 25q-111 0 -321 -35z" />
<glyph unicode="D" horiz-adv-x="1787" d="M-61 -209q391 176 749 662l-227 -33l-19 -33l-39 -12q-92 287 -206 473l4 12q16 -4 84 -26q55 -18 80 -19q74 0 176 23q86 20 174 41v182q-2 0 -92 -21q-55 -10 -95 -10q-55 0 -127 78q207 0 314 35q-10 170 -10 172q-12 100 -56 162q80 0 107 -4q59 -8 100 -37 q-16 -88 -35 -267q14 4 117 37q92 31 100 31l80 -10l37 -31l-14 -27l-320 -88v-180q49 6 187 47q117 35 188 35q41 0 117 -39q70 -37 102 -72q-123 -176 -147 -215q-76 -117 -133 -225l-17 -8l-33 12l19 64l-293 -39q330 -393 977 -551q-264 -35 -356 -35q-121 0 -242 94 q-80 61 -201 205q-131 154 -184 201q2 -70 12 -212.5t10 -215.5q0 -342 -102 -381q-66 61 -66 151q0 106 27 308q27 209 29 305q-176 -203 -330 -324q-184 -145 -401 -225zM371 764q20 -53 43 -148q25 -111 35 -149l264 37l2 311q-154 -18 -344 -51zM463 700q76 0 102 -12 q41 -22 41 -88q0 -63 -22 -63q-8 0 -17.5 11t-19.5 38q-23 55 -84 114zM805 512l313 41q61 229 62 311h2q-4 37 -27 37q-61 0 -168 -31q-123 -33 -170 -39q0 -109 -12 -319zM868 592q23 59 45 117q37 88 64 88q100 0 100 -33q-66 -61 -209 -172z" />
<glyph unicode="E" horiz-adv-x="1611" d="M6 1044q106 0 520 29q-14 78 -30 154q-20 70 -86 131q150 -6 184 -74q18 -35 18 -174v-29l379 35q39 125 39 201q0 41 -29 129q150 -25 209 -88q-12 -41 -57 -110.5t-57 -108.5q47 4 170 35q105 28 168 28h4h3q118 0 171 -69q-27 -45 -254 -56q-150 -4 -297 -10 l-129 -246l-43 -6q31 80 82 240h-49q-143 0 -310 -41l2 -105v-13q0 -35 -8 -81l-22 -12l-33 8l-19 188q-96 -20 -192 -41q-116 -24 -185 -24h-5q-41 0 -92.5 36t-51.5 74zM254 629q66 8 475 82q291 53 475 53q51 0 112.5 -27.5t84.5 -66.5h2q-20 -152 -96 -351 q-88 -231 -179 -305q-29 14 -96 101q-47 59 -92 118q96 -40 133 -40h2q80 0 121 174q31 123 31 241q0 76 -129 76q-74 0 -191 -22q-143 -27 -190 -33q43 -29 114 -99q-47 -123 -47 -315q0 -68 8 -198t7 -189q0 -264 -60 -266q-49 35 -49 334q0 90 4 223t4 149q0 236 -6 357 q-82 -20 -166 -39q-106 -25 -166 -25q-78 0 -106 68z" />
<glyph unicode="F" horiz-adv-x="1845" d="M-82 563q166 12 399 62q74 272 74 454q0 139 -39 248q203 0 203 -94q0 -100 -59 -287q-74 -223 -86 -289q119 12 206 60l5 63q1 6 1 12q0 35 -20 68q39 -8 84 -33q57 -33 57 -63q0 -70 -65 -266q-49 -139 -96 -277q154 -131 170 -235l-9 -17l-10 -4q-47 18 -104 74 q-80 74 -94 86q-215 -281 -478 -361q164 141 219 195q117 115 187 223q-35 35 -96 72q-51 31 -103 63l-10 41l47 187q-29 -6 -143 -47q-88 -31 -148 -31q-86 0 -92 96zM332 369q0 -29 10 -39q68 -27 166 -70q65 178 102 397q-74 -23 -221 -75q-4 -12 -33 -113 q-25 -88 -24 -100zM633 -82q115 4 342 25q-29 31 -29 264q0 104 7.5 275t7.5 192q0 281 -48 403q25 0 71 -8t69 -8q63 0 180 39t178 39q45 0 97.5 -28t72.5 -67q-4 -10 -59 -161q-33 -90 -33 -172v-697q12 0 82 13q51 8 84 8q147 0 190 -82q-18 -47 -149 -47q-45 0 -119 6 t-88 6q-121 0 -358.5 -38t-358.5 -38q-92 0 -139 76zM1022 -47q119 18 358 47q0 139 12.5 420t12.5 422v157q0 31 -76 31q-92 0 -276 -20v-310q66 6 264 43l14 -8q2 -86 -141 -86q-29 0 -77 4t-60 4v-299q35 0 101.5 13.5t98.5 13.5q43 0 78 -27q0 -29 -86 -53 q-72 -18 -115 -18q-18 0 -77 24q0 -266 -31 -358z" />
<glyph unicode="G" horiz-adv-x="1677" d="M-18 -205q229 186 393 555q157 354 157 660q0 35 -38 186l8 25l22 12l121 -64q84 12 338 82q213 59 340 60q37 0 98.5 -42t79.5 -77h2q-18 -33 -96 -84q-61 -41 -74 -115l33 -51q-31 -31 -348 -70q-199 -23 -397 -45q-152 -743 -623 -1046zM571 485q20 4 50 -2 q37 -6 49 -6q186 0 338 27q-8 139 -23 184q-35 115 -41 139q135 -12 203 -77q-2 -27 -19 -117q-12 -74 -12 -121q45 6 154 37q96 29 153 29q59 0 140 -37t114 -84q-14 -27 -45 -82q-20 -39 -57 -230q-43 -217 -74 -307q-51 -153 -118 -153h-1l-14 12q-16 72 -63 211 q-150 8 -271 8q-139 0 -274 -22q-12 -37 -45 -103l-33 21q-53 371 -111 673zM629 889q197 23 590 84q36 102 36 192l-6 15l-18 6q-123 0 -291 -27q-145 -25 -291 -51zM686 436q29 -162 62 -502q257 37 269 37h1q-10 99 -10 186v29q-102 -10 -123 -10q-25 0 -59.5 17.5 t-37.5 39.5q76 2 220 27v197q-213 -18 -322 -21zM1083 -12q135 6 136 6q104 0 141 -76q41 2 80 246q30 201 30 303q-4 10 -10 22q-10 4 -22 11q-61 0 -164 -17q-123 -18 -166 -22l-14 -185q14 2 73 15q43 10 72 10q96 0 96 -37q0 -33 -106 -49q-68 -6 -137 -12z" />
<glyph unicode="H" horiz-adv-x="1691" d="M-25 815q234 -22 234 -133q0 -16 -13.5 -34.5t-27.5 -18.5q-27 0 -43 14q-29 25 -75 86.5t-75 85.5zM12 90q0 18 41 39q53 27 58 31q88 82 260 418h30q-137 -297 -264 -703q-125 125 -125 215zM141 1219h47q109 0 158 -19q82 -29 82 -115q0 -55 -22 -55q-20 0 -130 82 q-68 53 -135 107zM354 109q100 29 264 57q211 35 267 45v164l-246 -51q-41 31 -61 65q98 0 307 47v156q-92 -10 -273 -35l-39 47q104 12 312 53v158q-61 -4 -195 -35q-121 -30 -192 -30h-4q-86 0 -140 61q106 0 267 25q248 35 264 36v168q-229 -20 -219 -20l-29 10l-25 43 q152 4 267 29v198q0 25 -56 152q168 -4 201 -94q-33 -143 -33 -236q59 20 121 41q86 29 115 29q39 0 91 -20.5t79 -49.5q0 -33 -27 -86q-31 -59 -37 -84q39 2 121 27q76 25 119 25q37 0 72 -24.5t47 -59.5q-37 -55 -217 -56q-29 0 -86 2q-24 1 -41.5 1t-26.5 -1 q-41 -88 -43 -145l35 -27l-8 -24q-59 -20 -156 -35q-127 -20 -158 -27v-141q35 2 103.5 23.5t105.5 21.5q84 0 105 -59q-39 -33 -150 -45q-82 -8 -164 -19v-156q63 4 213 31q135 25 213 25q139 0 193 -86l-25 -39q-100 -18 -229 -19q-61 0 -183 5.5t-182 5.5 q0 -47 7.5 -147.5t7.5 -149.5q0 -258 -93 -328q-34 19 -34 278v15q0 74 3 182.5t3 118.5q-72 -4 -226 -39q-145 -35 -225 -35zM991 670l209 30l14 164l-223 -26v-168zM991 889l230 35l6 168l-236 -31v-172z" />
<glyph unicode="I" horiz-adv-x="1695" d="M-25 983q428 47 592 66q332 41 590 88q88 18 176 37q100 22 170 22h6q47 0 109 -22q78 -29 78 -66q0 -16 -41 -29q-93 -28 -251 -28h-11h-93q-63 2 -94 2q-184 0 -546.5 -77t-548.5 -77q-76 0 -136 84zM209 -84q0 20 14 53q6 10 58 76q90 121 141 219q8 -49 8 -108 q0 -233 -170 -314q-20 2 -35.5 28t-15.5 46zM412 797q94 -8 155 -54q66 8 264 66q170 51 263 51q43 0 106.5 -30.5t81.5 -65.5q-31 -51 -88 -119l-94 -115l57 -18l-31 -41q-59 -25 -147 -35q-74 -8 -150 -16q33 -29 91 -92q-12 -139 -13 -285q0 -29 8.5 -84t8.5 -84 q0 -72 -31 -147q-39 -98 -100 -99q-43 43 -115 143.5t-117 143.5q51 -25 103 -49q72 -31 104 -31l20 6q27 55 27 267q0 170 -47 297l-123 -37q-20 -31 -27 -37q-14 -18 -38 -21q-47 80 -91 240q-45 176 -77 246zM575 711q39 -145 54 -285q121 14 188 33q82 31 209 59 q74 156 74 199q0 18 -14.5 38.5t-32.5 20.5q-47 0 -115 -14q-57 -12 -115 -23q-100 -18 -248 -28zM690 1452q115 -4 201 -31q125 -41 125 -127q0 -29 -24.5 -68.5t-53.5 -39.5q-10 0 -27 20q-70 84 -221 246zM1094 233q248 0 356 -108q63 -64 63 -111q0 -106 -45 -106 q-31 0 -47 10t-59 62q-106 129 -268 253z" />
<glyph unicode="J" horiz-adv-x="1835" d="M-80 133q485 328 561 678q-45 -4 -153 -33q-95 -28 -152 -28h-4q-84 0 -158 81q416 8 912 103q98 178 116 219q63 137 64 238q0 33 -35 94q137 -23 189 -94q-12 -55 -119 -217q-143 -219 -148 -228q55 6 203 39q125 29 201 29q137 0 190 -94q-53 -45 -133 -46 q-29 0 -88 7.5t-90 7.5q-68 0 -172 -8q-141 -12 -172 -15q160 -213 397.5 -354t505.5 -184q-88 -39 -270 -39q-145 0 -281 100q-102 76 -217 227q-90 125 -178 248q-139 -8 -332 -37l35 -77q-63 -152 -279 -375q-238 -244 -370 -244h-2zM231 139l29 -2q16 -1 33 -1 q89 0 215 26q123 29 244 55v176q-130 -11 -130 -12h1q-100 0 -144 45q115 2 275 41q4 27 4 57q0 47 -19 76q-12 16 -57 57q43 -4 84 -6q49 -6 78 -26q4 -24 4 -51q0 -42 -10 -89q27 2 84 14.5t88 12.5q57 0 80 -27q-23 -41 -115 -63q-18 -4 -137 -23v-166q39 2 149 17 q92 14 148 14q155 0 180 -90l-8 -18q-68 -14 -154 -15q-51 0 -153.5 7.5t-153.5 7.5q0 4 0 -131q0 -383 -84 -463q-33 27 -33 186q0 41 19 408q-57 -2 -187 -35q-119 -31 -186 -31q-49 0 -144 49zM295 1264q203 -10 203 -183h2q0 -116 -34 -116h-1q-10 0 -41 67 q-53 119 -129 232zM621 1405q219 -164 219 -219q0 -94 -92 -94q-18 0 -29 38q-45 176 -98 275z" />
<glyph unicode="K" horiz-adv-x="1677" d="M-18 563q147 16 297 33q172 20 294 55l7 183q1 13 1 26q0 89 -24 191q-119 -18 -186 -19q-90 0 -125 60q98 12 461 102q285 70 462 70q135 0 166 -45l-37 -54q-59 -14 -168 -26q-121 -12 -167 -23q127 -35 127 -149q0 -16 -3.5 -62.5t-3.5 -73.5l2 -96q55 4 195 35 q123 27 195 27q132 0 202 -70q0 -57 -69 -70h-111h-412q0 -70 12.5 -267t12.5 -306q0 -346 -102 -492q-55 184 -56 439q0 102 12.5 306t12.5 302q-80 -6 -160 -14q-90 -10 -155 -33q0 -211 -158 -494q-172 -313 -364 -313h-5l-29 2q207 109 334 334q119 213 133 457 q-104 -25 -208 -52q-117 -26 -206 -26h-7q-119 0 -170 63zM608 1067q74 -74 74 -147q0 -31 -6 -92.5t-6 -92.5q0 -12 2 -33v-32q98 14 295 41v213q0 119 -31 184q-164 -23 -328 -41z" />
<glyph unicode="L" horiz-adv-x="1748" d="M-47 420q0 27 27 78q20 39 40 77q37 84 52 222h20v-330h2q0 -41 -31.5 -84t-70.5 -43q-14 0 -26.5 30.5t-12.5 49.5zM209 1358q49 -4 121 -41q82 -43 82 -84q0 -70 -29 -184q-31 -133 -35 -185q113 -6 144 -14q88 -25 86 -94h2l-7 -49l-20 -23q-43 25 -104 76 q-72 61 -101 82q0 -104 6 -320.5t6 -324.5q0 -12 2 -62v-86q0 -326 -90 -364q-49 27 -49 127q0 39 23.5 109.5t23.5 109.5l4 1030q0 211 -65 297zM434 -184q184 137 270.5 255.5t157.5 334.5q-39 -2 -128 -16.5t-136 -14.5q-78 0 -141 78q49 -6 108 -7q92 0 316 25 q8 47 34 371q-23 -2 -70.5 -16.5t-74.5 -14.5q-43 0 -82 12l-35 43q111 0 267 41q8 252 8 279q0 109 -35 205q166 -31 203 -113q-37 -117 -95 -358q37 4 140 36q88 27 141 27q111 0 156 -76q-25 -63 -95 -196q-68 -125 -94 -199q33 6 129 31q77 22 125 22h4q127 0 164 -65 l-24 -41q-133 -18 -324 -27q-162 -6 -322 -12q113 -231 304 -389q206 -174 444 -209q-242 -25 -309 -25q-115 0 -273 250q-51 80 -194 359l-33 -17q-61 -213 -176 -358q-139 -176 -330 -215zM954 485q84 4 250 27l74 371h-2q4 24 -23 24h-2q-47 0 -125 -16q-90 -20 -122 -25 q-6 -195 -50 -381z" />
<glyph unicode="M" horiz-adv-x="1740" d="M-43 -184q465 313 676 684l-230 -62q-131 -32 -227 -32h-6l-104 34l-21 37q92 16 309 37q199 20 308 43v442q-31 -2 -113 -20q-72 -16 -115 -16l-76 16l-32 35q45 20 336 67v168q0 100 -56 203q147 -8 201 -94q-2 -12 -19 -125q-12 -76 -12 -125q33 4 119 29 q74 20 119 20q121 0 155 -55q-41 -43 -198 -66q-113 -10 -226 -22v-436q61 6 256 36q160 25 259 25q127 0 172 -61l-21 -29q-66 -27 -319 -33q-172 -4 -347 -8q168 -225 443 -367q252 -133 553 -172q-184 -53 -395 -53q-100 0 -318 229q-141 162 -283 322l5 -469 q0 -190 -19 -420l-33 -16q-65 8 -65 137q0 133 16 371q16 254 19 366q-74 -156 -301 -377q-247 -243 -385 -243h-5h-20zM326 827q70 -4 125 -41q63 -41 63 -104q0 -61 -27 -61q-35 0 -161 206zM868 657q53 74 107 150q35 66 35 176q172 -62 172 -76q0 -57 -314 -250z" />
<glyph unicode="N" horiz-adv-x="1452" d="M68 -31q0 47 61 121q86 102 92 117q37 61 53 147h15q2 -27 12 -112q6 -70 6 -111h2q0 -66 -57 -154q-61 -98 -121 -98q-25 0 -44 32t-19 58zM115 557q20 16 106 21q70 285 70 421q0 49 -53 109l28 6q23 0 65 -18.5t62 -18.5q68 0 247 73t226 120q61 57 86 57 q39 0 101 -33q55 -29 90 -61q-246 -63 -731 -203q-20 -115 -41 -229q-27 -131 -72 -219q68 14 202 34.5t201 34.5q0 92 -18 156q-12 37 -57 145q170 0 204 -92q-34 -88 -34 -184v-6q53 6 196 53q127 41 195 41q133 0 172 -47l-10 -25q-80 -43 -265 -59q-141 -12 -282 -25 q18 -166 18 -448q0 -455 -129 -502l-28 10q-47 70 -97 139q-57 78 -112 127q152 -49 194 -49l25 4q43 86 43 365q0 223 -10 334q-213 -43 -271 -60q-145 -41 -254 -108q-49 41 -67 137zM969 328q217 -55 297 -92q186 -86 186 -209h-2v-21q0 -72 -23 -72q-10 0 -458 394z" />
<glyph unicode="O" horiz-adv-x="1839" d="M-80 88l279 55q0 104 8 315.5t8 317.5q0 39 -14 268q-89 -13 -89 -14h1q-41 0 -76 62q63 10 323 84q203 57 326 57q88 0 123 -31h2q-29 -49 -113 -72q-70 -10 -137 -22q94 -55 94 -109q0 -23 -15 -63.5t-15 -63.5v-608l94 25v-25l-90 -43q10 -117 10 -244 q0 -276 -61 -319q-63 47 -64 217q0 53 17.5 156.5t17.5 154.5q-84 -29 -247 -103.5t-251 -105.5q-49 20 -131 111zM250 1055q23 -8 43 -35t20 -51q0 -37 -14 -103q-16 -72 -16 -102q63 23 196 63l19 -10l8 -20q-23 -37 -103 -49q-61 -6 -120 -13v-223q143 27 170 27 q45 0 45 -21q0 -51 -105 -51q-20 0 -55 8q-43 8 -55 10v-315q154 35 264 68l2 823l-6 24l-17 13zM666 -162q184 168 247 250q121 154 134 318q-6 0 -134 -25q-80 -14 -133 -14t-110 53q125 10 374 47q12 55 13 90q0 117 -23 178q-12 -2 -69 -14q-43 -10 -70 -10 q-37 0 -100 49q70 10 292 78q186 55 293 55q123 0 148 -51l-15 -17q-152 -31 -454 -86q98 -45 98 -143q0 -39 -14 -107q47 6 192 52q121 37 195 37q104 0 153 -82l-16 -19q-49 -8 -526 -57l-8 -62q268 -391 706 -493q-233 -27 -346 -27q-72 0 -385 443q-47 -121 -174 -271 q-150 -174 -252 -174zM858 1139q45 0 119 -41q82 -45 82 -84h2q0 -25 -19.5 -52.5t-42.5 -27.5q-10 0 -36 55q-33 72 -105 150zM1184 934q43 78 129 235q12 23 16 93.5t10 76.5q27 0 105 -36t78 -54q0 -16 -58 -59q-150 -111 -262 -256h-18z" />
<glyph unicode="P" horiz-adv-x="1609" d="M8 952q170 0 170 -131q0 -61 -12 -182t-12 -182q0 -332 -68 -332q-49 0 -49 156q0 88 16.5 261t16.5 261q0 18 -25 74q-18 37 -37 75zM287 1294q132 -3 202 -75q-45 -246 -45 -576q0 -133 10.5 -400.5t10.5 -402.5q0 -133 -53 -155q-84 45 -84 168q0 37 18.5 105.5 t18.5 102.5v1061q0 41 -27 90q-27 41 -51 82zM567 545q180 223 244 354q72 152 109 412l6 16q135 -2 184 -78q-23 -55 -79 -158.5t-79 -156.5q59 8 230 63q147 47 225 47q109 0 109 -61q0 -70 -596 -94q-68 -111 -154 -207q-121 -137 -197 -137h-2zM600 389q16 -2 72 -18 q47 -16 71 -17q111 0 325 65.5t325 65.5q41 0 116 -47q68 -41 101 -80q-14 -23 -55.5 -53.5t-53.5 -54.5l-108 -215h7q85 0 85 -51q-29 -33 -336 -66q-225 -23 -381 -29q4 -41 -25 -41q-16 0 -32.5 33t-20.5 53q-16 115 -33 230q-20 129 -57 225zM750 311q0 -31 6 -78 q8 -59 8 -79q4 -57 4 -220q88 14 266 37l-30 369zM956 750q55 0 160 -39q121 -43 121 -86q0 -27 -24.5 -61t-49.5 -34q-12 0 -24 11q-23 18 -49 53q-39 51 -46 57q-47 55 -88 99zM1049 358q61 -8 61 -108q0 -117 -29 -266q76 12 228 47q20 72 41 145q26 93 26 150 q0 63 -43 63q-57 0 -141 -10q-137 -20 -143 -21z" />
<glyph unicode="Q" horiz-adv-x="1734" d="M23 233q424 18 669 68q18 86 19 123l-6 65q-70 -12 -138 -22q-80 -14 -137 -14q-66 0 -129 59q188 6 438 51v148q-197 -13 -197 -15h1l-56 11l-34 32q96 18 276 41l-20 140q-211 -12 -211 -13q-80 0 -119 62q80 10 354 69q221 49 357 49q117 0 147 -51l-18 -18 q-86 -23 -222 -41q-211 -29 -223 -31q48 -35 48 -118q0 -15 -1 -31q35 2 109 16t114 14l58 -16l26 -41q-37 -25 -149 -31l-164 -4v-164q33 4 133 23q82 14 131 14q51 0 111 -14l31 -49q-14 -8 -37 -10q-14 -2 -37 0q-31 2 -39 2q-180 0 -354 -37q57 -72 57 -109 q0 -25 -16 -80q74 6 305 47q190 31 307 31q111 0 172 -94q0 -41 -156 -41q-61 0 -163.5 7t-112.5 7q-209 0 -332 -30q199 -236 410 -347q166 -86 510 -170q-39 -29 -187 -47q-121 -16 -200 -16q-119 0 -316 223q-131 164 -260 328q-39 -219 -231 -363q-186 -135 -414 -135 q203 66 344 185q166 139 207 321q-55 -4 -234 -35q-140 -26 -227 -26h-6q-111 0 -188 77zM457 1327q162 0 209 -125q4 -12 4 -20h2q0 -59 -51 -60q-18 0 -31 15q-41 66 -133 190zM848 1108q158 203 184 344q27 -2 98 -37q64 -34 91 -57q2 -20 -26 -34.5t-50 -25.5 q-131 -61 -266 -190h-31z" />
<glyph unicode="R" horiz-adv-x="1816" d="M0 -205q162 20 483 47q-23 109 -47 215q-31 117 -84 207q20 4 45 4q17 0 35 -2q70 -6 82 -6q135 0 403.5 38t405.5 38q27 0 79 -38t64 -65q-10 -31 -61 -163q-39 -100 -51 -168q15 -1 33 -1q46 0 112 7q104 8 146 8q61 0 108 -18q64 -27 64 -78q0 -43 -58 -43 q-84 0 -250 26.5t-249 26.5q-184 0 -551 -56.5t-551 -56.5q-80 0 -158 78zM301 1169q20 0 59 -6t60 -6q59 0 161.5 38t112.5 38q29 0 82 -35t70 -59h2q-27 -33 -57 -88q-4 -164 -11 -328q-14 -256 -94 -256v121l-264 -49q0 -72 -45 -103q-33 0 -33 160q0 55 4 142t4 93 q0 174 -51 338zM420 588q27 4 92 30q59 20 96 21q14 0 41 -4t35 -6q18 182 18 237v97q0 68 -6 151l-10 14q-18 4 -20 5l-246 -19v-242q31 0 89 17.5t89 17.5q41 0 41 -43t-201 -43h-18v-233zM520 211l25 -363q8 0 192 17q-6 27 -14 82l-12 250q96 0 96 -201q0 -25 -2 -64 v-51v-6l162 8q28 242 28 343v7q80 0 113 -47q-14 -23 -33 -67l-53 -230l248 5l51 350l-12 22l-21 10zM762 311q131 154 186 318q51 152 51 362q0 147 -49 273q59 0 107 -21q55 10 149 39q104 35 148 45q110 -43 178 -100q-4 -16 -21.5 -60.5t-17.5 -68.5v-287q0 -29 9 -86 t9 -86q0 -260 -145 -264q-68 88 -147 164q96 -43 137 -43l28 4q16 63 17 63v514q0 23 -4 62q-4 47 -4 63q-37 16 -37 17l-293 -17l16 -182q31 0 95.5 15.5t95.5 15.5q27 0 39 -41q-26 -43 -168 -43q-28 0 -60 2l-12 -199q29 0 83 16.5t83 16.5l43 -12l16 -27 q-36 -47 -207 -47h-28q-59 -176 -98 -244q-78 -129 -199 -162z" />
<glyph unicode="S" horiz-adv-x="1683" d="M39 -141l135 65q16 115 16 307v560q0 238 -77 378h15q102 0 155 -26q68 10 325 96q238 78 287 78q137 0 227 -98q-16 -23 -112 -107q-57 -51 -74 -143l43 -15l14 -24q-33 -47 -329 -103q-190 -31 -381 -63q0 -80 6 -241t6 -242q0 -186 -27 -322q244 102 373 180h47 q-190 -127 -215 -145q-121 -86 -197 -168q-41 -51 -133 -141q-92 66 -104 174zM283 1092q0 -29 4 -134q2 -40 2 -73t-2 -58q141 20 205 33q113 20 200 47q45 16 139 45q37 150 37 205l-10 21l-20 8q-53 0 -138 -23q-119 -33 -133 -35q-90 -18 -284 -36zM330 420 q102 23 207 47q121 27 202 59l-114 277q154 0 174 -51q14 -94 28 -189q43 6 166 60q111 47 154 47q76 0 100 -72q-23 -37 -399 -113q156 -268 258 -399q203 -258 358 -258q68 0 119 137q16 47 53 195l15 6q14 -150 32 -449l-28 -32q-49 -14 -49 -15q-246 0 -504 283 q-195 215 -332 504q-238 -82 -317 -82q-84 0 -123 45z" />
<glyph unicode="T" horiz-adv-x="1574" d="M98 1077q78 0 142 -33q29 6 159 52q123 43 136 43q33 0 90 -39t80 -70q-4 -20 -33 -61t-29 -62v-596q0 -47 -26.5 -94t-67.5 -61q-31 137 -62 184q-121 -10 -247 -45v-21q0 -118 -67 -118h-1q-43 0 -43 108q0 23 8 70t8 72v528q0 55 -47 143zM240 358q86 14 149 15 q35 0 154 -15q10 213 26 641q-27 37 -34 37q-55 0 -148 -14q-109 -16 -147 -18v-304q72 8 247 35l31 -43q-18 -6 -53 -16t-112 -17.5t-113 -19.5v-281zM440 -330q264 168 400 508q116 289 116 639v6q0 229 -79 410q27 0 84 -7t86 -7q57 0 163.5 37.5t163.5 37.5 q49 0 109.5 -22t91.5 -53q-6 -29 -32.5 -73t-29.5 -54q-4 -20 -4 -160q0 -174 7.5 -596t7.5 -461t-41 -105.5t-78 -84.5q-57 39 -129 129q-84 106 -119 139q70 -37 161 -37h9l64 2q45 33 45 143q0 686 -45 1108l-43 50q-41 -16 -150 -31q-96 -12 -147 -37l-4 -324 q10 2 100 29q61 16 102 16l56 -14l20 -31l-287 -63l4 -88v-11q0 -34 -10 -85q-14 -82 -16 -95q23 2 131 19q82 12 133 12l78 -31l-33 -32l-309 -33q-49 -238 -185 -436q-141 -209 -344 -326z" />
<glyph unicode="U" horiz-adv-x="1574" d="M37 639l35 4q23 0 63.5 -14.5t63.5 -14.5q86 0 207 23q100 23 202 45q41 123 54 252q-160 -27 -173 -27q-113 0 -141 56q82 12 166 24q94 16 162 39q33 221 33 313l-37 93q152 0 223 -74q-68 -104 -100 -314q29 6 120 37q78 27 119 27q92 0 137 -64l-20 -20 q-18 -4 -371 -61q-10 -29 -104 -267q74 8 332 60q207 41 335 41q57 0 130 -35q79 -35 102 -80q-25 -47 -57 -143q-23 -246 -43 -492q-49 -346 -207 -389q-63 92 -203 260q168 -43 195 -43l26 4q43 41 68 369q18 236 18 409l-55 43q-135 0 -445 -41l84 -16l31 -35 q-47 -53 -96 -106q-55 -61 -86 -113q4 2 84 27q51 16 86 16l61 -14l35 -33l-27 -29q-49 -14 -139 -22q-102 -8 -143 -17v-135q31 2 125 15q78 12 125 12q18 0 54 -17.5t46 -31.5q-51 -41 -360 -41l6 -187v-8q0 -107 -49 -164q-53 37 -54 183q0 33 2 82q4 59 5 65 q-25 -2 -93 -16q-59 -12 -94 -13q-53 0 -127 64q156 12 314 35v141q-31 -2 -96.5 -17.5t-100.5 -15.5q-63 0 -100 60q111 10 387 53q29 66 57 131q31 78 35 139l-340 -53q104 -68 104 -137l-18 -55q-86 23 -121 182q-90 -6 -274 -25q-2 -53 -2 -110q0 -86 10 -255t10 -253 q0 -80 -20 -133l-43 -31q-70 68 -70 301q0 78 9 211t9 168q0 100 -61 178z" />
<glyph unicode="V" horiz-adv-x="1691" d="M-25 381q203 184 349 428q166 285 165 518q140 -25 177 -125q-43 -98 -217 -381q55 -33 55 -121q0 -963 -113 -983q-47 45 -47 191q0 35 12 92q16 78 19 92q20 160 24 668q-92 -125 -192 -225q-150 -150 -232 -154zM618 27q0 18 60.5 135t64.5 196l21 -4 q0 -27 13.5 -80.5t13.5 -80.5q0 -66 -39 -154q-47 -104 -103 -105q-31 0 -31 93zM680 537q88 106 213 344q141 266 141 362q0 20 -16 137q168 -45 213 -120q-39 -35 -101 -117l-174 -340q61 10 246 74q156 53 246 53q39 0 110.5 -29.5t102.5 -58.5l-19 -39 q-61 -41 -149 -117q-104 -90 -143 -121q70 168 71 221l-20 29q-92 0 -240 -29q-186 -39 -237 -43q-76 -109 -217 -206h-27zM868 -76q43 -18 86 -37q51 -22 85 -22h3q31 0 31 65l2 437q0 131 -84 241q51 0 113 -18q72 -23 90 -60q-2 -8 -12.5 -35.5t-10.5 -41.5 q0 -109 6.5 -329t6.5 -331q0 -147 -99 -170q-51 47 -112 148q-76 119 -105 153zM1333 328q123 -4 234 -74q125 -80 125 -193q0 -90 -58 -90q-12 0 -22 13.5t-45 58.5q-123 168 -234 285z" />
<glyph unicode="W" horiz-adv-x="1757" d="M-49 311q297 27 567 74q-49 238 -117 379q29 0 79 -14.5t77 -14.5q74 0 174 23q86 23 170 45v258q-41 -10 -84 -21q-51 -10 -86 -10t-110 47q-184 -231 -349 -280q162 162 238 280q98 158 125 342q113 -18 158 -80q-45 -82 -152 -231q80 10 281 74q176 55 278 55 q80 0 131 -45l-18 -39q-68 -31 -183 -47q-150 -20 -184 -29l43 -10l21 -23v-217q37 4 137 33q86 23 137 23l90 -19l41 -37q-41 -37 -194 -57q-4 0 -217 -20v-293q61 6 243 32q152 23 244 23q241 0 266 -113q-23 -18 -129 -18q-63 0 -179 7t-134 7q-156 0 -311 -10l4 -297 v-63q0 -410 -74 -488q-33 37 -37 400q-1 60 -1 117q0 171 5 321q-100 -12 -397 -90q-252 -68 -398 -68q-41 0 -88 28.5t-67 65.5zM557 684q4 -98 21 -295q143 31 321 47l2 303q-115 -14 -344 -55z" />
<glyph unicode="X" horiz-adv-x="1650" d="M-8 604q117 100 280 332q182 260 183 375l-27 80q133 -16 170 -97h2q-33 -61 -109.5 -181t-111.5 -183l57 -23q8 -12 8 -116q0 -508 -84 -510q-32 36 -32 154v7q0 57 13 180t13 187l-2 74q-174 -178 -327 -279h-33zM92 -121q0 37 64.5 161t72.5 181h27v-176h2 q0 -72 -25 -156q-35 -108 -89 -108h-1q-23 0 -37 39q-14 33 -14 59zM442 166l23 -6q0 -162 182 -271q156 -94 332 -94q193 0 258 47q-23 125 -111 219q104 -61 209 -120q154 -93 168 -146q-51 -41 -229 -78q-151 -32 -243 -32h-5q-117 0 -291 55q-162 53 -227 156 q-59 92 -66 270zM551 791q125 94 230.5 274t117.5 330q137 0 168 -84q-27 -49 -86 -117q-72 -84 -92 -113q152 35 457 88q110 -49 186 -139q-94 -37 -270 -121q33 70 36 80q23 51 27 84l-20 19l-301 -48q94 -49 94 -110q0 -37 -14.5 -108.5t-14.5 -108.5q0 -49 14.5 -148.5 t14.5 -148.5q0 -47 -19 -96q-23 -57 -59 -74q-43 18 -98 78q-78 82 -91 92q47 -4 123 -21l33 27q8 111 8 387q0 141 -49 217q-20 -2 -96 -16q-92 -111 -129 -144q-84 -74 -170 -79zM641 526q0 41 47 113q51 82 60 125h22q16 -45 16 -98q0 -96 -73 -189q-29 -35 -41 -35 q-31 0 -31 84zM676 227q266 -5 266 -118q0 -63 -47 -64q-29 0 -59 27q-23 27 -48 51q-41 43 -112 104zM1204 735q88 0 164 -30q102 -39 102 -113q0 -80 -40 -80q-14 0 -33 18q-63 70 -193 205zM1292 281q23 2 58 2h49q252 0 252 -133q0 -59 -35 -60q-12 0 -154 86 q-84 53 -170 105z" />
<glyph unicode="Y" horiz-adv-x="1632" d="M0 639q168 37 444 57q354 27 447 39q109 197 108 283l-4 43q-348 -31 -587 -31l-50 17l-32 45q143 0 426.5 55t427.5 55q100 0 141 -59q-49 -41 -150 -51q-82 -8 -163 -15q111 -35 157 -94q-78 -80 -219 -248q53 4 211 35q129 27 209 27q219 0 266 -113l-10 -4 q-55 0 -165.5 11t-168.5 11q-231 0 -487 -36l53 -62l6 -151q49 2 168 18q106 14 168 14q168 0 219 -75q-55 -35 -160 -35q-27 0 -85 3t-83 3l-233 -6q0 -53 8 -164t8 -168q0 -356 -125 -420q-49 39 -120.5 134.5t-114.5 131.5q95 -30 211 -30h8l19 16q18 98 18 250 q-1 111 -1 173t1 77q-94 -23 -188 -45q-111 -25 -191 -25q-135 0 -172 70q145 0 551 61q-2 37 -8 111t-8 110q-70 -8 -297 -55q-184 -39 -299 -39q-92 0 -154 76zM231 -84q0 55 84 158q102 123 117 153h17v-125q0 -59 -43 -151q-51 -102 -103 -103q-29 0 -50.5 19.5 t-21.5 48.5zM526 952q78 -6 142 -84q30 -35 30 -47q0 -29 -17 -55.5t-44 -26.5q-20 0 -64 95q-31 68 -47 118zM682 1452q57 -2 156 -45q108 -49 108 -96q0 -31 -20.5 -54.5t-51.5 -23.5q-37 0 -108 90q-53 70 -84 129zM1040 250q98 -2 232 -96q143 -103 143 -195 q0 -51 -78 -51q-25 0 -147 151q-76 96 -150 191z" />
<glyph unicode="Z" horiz-adv-x="1830" d="M-76 633q37 10 234 88q186 76 196 76q90 0 135 -80q-8 -29 -35.5 -83t-33.5 -91q-10 -139 -45 -418q92 49 270 156v-27q-55 -51 -190 -213q-119 -137 -199 -199q-51 70 -61 158q20 27 102 88l27 596q-20 -6 -154.5 -62.5t-136.5 -56.5q-47 0 -109 68zM260 1264 q229 0 272 -60q19 -27 19 -76q0 -67 -30 -67h-1q-10 0 -123 92q-70 55 -137 111zM508 639q35 4 496 82l2 151q-29 0 -89.5 -9t-91.5 -9q-39 0 -61 53q137 0 242 23v162q-18 -2 -103 -15q-66 -10 -106 -10q-51 0 -70 41q109 6 279 43l2 94q2 102 -93 207h39q178 0 179 -88 q0 -33 -18.5 -96.5t-18.5 -98.5q29 6 110 39q68 29 113 29q66 0 104 -29l-22 -41q-2 0 -305 -59v-156q59 4 217 62l55 -15l23 -26q-43 -37 -140 -58q-78 -12 -155 -26v-150q377 88 534 88q57 0 117 -18q80 -27 84 -70q-30 -26 -84 -26h-4q-20 0 -58 4t-55 4q-373 0 -690 -62 q-16 -4 -168 -43q-101 -28 -167 -28h-5q-37 0 -92 51zM731 -205q0 84 39 252t39 256q0 39 -6 111.5t-8 103.5q14 0 53 -6q31 -4 51 -4q57 0 163.5 35t162.5 35q41 0 102 -27q70 -31 70 -66q0 -31 -16.5 -88t-16.5 -86q0 -78 21.5 -232.5t21.5 -232.5q0 -88 -18 -161 q-27 -106 -82 -113q-43 27 -105 111q-72 96 -102 122v23q51 -18 155 -47l25 10q8 14 8 49q0 201 -16 373q-27 293 -90 293q-49 0 -142.5 -26.5t-140.5 -26.5v-158q37 2 111.5 26.5t115.5 24.5q43 0 52 -51l-15 -12q-88 -8 -264 -45q0 -20 -3 -64.5t-3 -64.5q37 0 106.5 20.5 t106.5 20.5q59 0 68 -60q-20 -16 -138 -27q-76 -4 -153 -8q-53 -370 -95 -370q-27 0 -43 45q-14 33 -14 65z" />
<glyph unicode="[" horiz-adv-x="1976" d="M14 14q362 283 543 645q-25 -6 -209 -69q-174 -59 -178 -60q-49 0 -156 109l142 -4q152 -4 411 86l6 309q-102 -45 -264 -96l-16 18q264 125 342 228q25 43 88 114q76 -31 145 -102q-45 -45 -133 -86q-74 -33 -145 -66q41 -6 90 -88q-12 -68 -29 -202q31 18 99 53 q76 -14 98 -68q-10 -14 -98 -35q-57 -12 -115 -24l-17 -256h60q190 2 190 -109l-12 -22l-33 -13q-37 16 -101.5 64.5t-103.5 65.5q0 -66 5.5 -208.5t5.5 -213.5q0 -162 -2 -197q-14 -143 -70 -164q-45 47 -45 189q0 115 25.5 342t25.5 342q-78 -129 -237.5 -274.5 t-296.5 -221.5zM702 -184q236 188 340 346q98 152 127 352q20 139 21 475q0 205 -25 338q135 -43 201 -108q-37 -152 -61 -385q-39 -362 -43 -388q147 -248 292 -372q174 -152 422 -209v-17q-195 -37 -299 -36q-121 0 -262 241q-39 68 -172 353q-68 -211 -196 -365 q-152 -178 -345 -225zM885 717q59 -4 117.5 -50.5t58.5 -103.5q0 -63 -41 -63q-33 0 -80 92q-29 61 -55 125zM1350 639q143 86 219 281q37 -14 84 -53t55 -70q-68 -18 -172 -80q-129 -76 -170 -92z" />
<glyph unicode="\" horiz-adv-x="1873" d="M-94 -90q291 143 540 493q260 367 261 674q0 59 -33 156q66 0 131 -29q76 -31 102 -82q-20 -66 -77.5 -190.5t-77.5 -188.5q207 -317 479 -526q299 -227 643 -299q-100 -2 -481 -35q-100 57 -349 361q-29 37 -327 422q-145 -258 -328 -465q-258 -293 -444 -293z" />
<glyph unicode="]" horiz-adv-x="1011" d="M8 1094l8 14q31 0 89.5 -13.5t89.5 -13.5q100 0 292.5 60.5t290.5 60.5q39 0 121 -46t113 -79q-6 -27 -54 -84q-41 -49 -40 -86v-893q0 -68 -31 -135q-35 -78 -92 -98q-37 43 -50.5 125t-31.5 106q-33 45 -138 45q-147 0 -397 -37q-12 -113 -67 -112q-27 0 -54 63 q-20 57 -20 90q0 27 23.5 74t23.5 74v651q0 49 -27 119q-25 57 -49 115zM172 80q61 4 229 33q145 27 232 26q14 0 67 -33q61 -35 78 -38q27 18 27 610q0 399 -88 399q-115 0 -271 -26q-135 -27 -268 -52q18 -86 17 -208q-4 -106 -7 -213q90 27 183 51q135 37 170 37 q37 0 75 -13q53 -16 54 -45q0 -59 -209 -76q-31 -2 -260 -6h-13q0 -51 -16 -446z" />
<glyph unicode="^" horiz-adv-x="1890" d="M102 805q303 31 912 84q86 104 172 209q76 109 67 260q147 -31 201 -125q-139 -119 -373 -338q80 4 293 33q182 25 293 24q182 0 223 -63q-4 -57 -395 -58h-137q-70 2 -78 3q-170 -4 -520 -62q-340 -55 -518 -55q-78 0 -140 88zM319 -90q33 4 93 24q76 43 295 347 q-197 -2 -312 -37q-49 33 -49 90l4 12q150 119 180 162q41 57 84 227q92 -18 125 -92q-10 -25 -114 -147q-117 -139 -136 -166q43 0 128 5t128 5q78 115 78 231q65 0 133 -86q-8 -20 -446 -551q76 4 276 35l-63 140q59 -23 125 -82q78 -70 78 -119q0 -25 -16.5 -45.5 t-41.5 -20.5q-37 33 -67 92q-72 -18 -210 -76.5t-210 -76.5q-61 47 -62 129zM629 1202q39 0 76.5 -19.5t87.5 -56.5q65 -46 65 -71q0 -27 -21.5 -56.5t-45.5 -29.5q-8 0 -23 12q-29 53 -74 129q-6 12 -65 92zM989 -41l4 10q162 86 322 342q-55 0 -144 -12q-115 -16 -141 -18 q-23 27 -37 77q106 98 148 199q25 59 59 240q80 -31 129 -80q-74 -117 -217 -359q176 12 264 17q31 63 60.5 125.5t29.5 142.5q82 -29 146 -90q-70 -115 -223 -287q-178 -197 -236 -278q80 4 342 26q-25 70 -55 125q78 -10 163 -98t85 -166q0 -92 -64 -94q-23 20 -57 88 q-25 49 -49 100q-100 -16 -238 -57q-117 -35 -236 -70q-35 33 -55 117z" />
<glyph unicode="_" horiz-adv-x="1904" d="M86 -141q172 0 412 26q207 25 411 49l9 492q8 627 -87 868q82 0 150 -28q84 -39 84 -109q0 -49 -20.5 -144t-20.5 -145q0 -66 12 -198q313 94 420 94q106 0 139 -29q-20 -70 -256 -102q-156 -12 -309 -25l-26 -661q92 4 311 37q199 31 311 30q234 0 279 -139 q-57 2 -195 8q-125 6 -194 6q-369 0 -793 -63q-25 -4 -231 -47q-141 -29 -236 -29q-33 0 -89 39t-81 70z" />
<glyph unicode="`" horiz-adv-x="1957" d="M35 -12q393 362 555 772q-80 -14 -191 -68q-160 -76 -184 -84q-61 14 -129 127q131 0 363.5 79t236.5 79q78 0 115 -66q-12 -25 -49 -55q-53 -47 -101 -123q-39 -70 -78 -141q279 0 279 -109q0 -59 -45 -75q-43 18 -105 73q-68 61 -98 80q31 -166 31 -176 q0 -168 -17 -332q-29 -272 -92 -272q-31 0 -30 186q0 113 18 287q25 254 27 287q-166 -274 -475 -473zM465 1305q221 0 264 -45q37 -42 37 -99q0 -70 -27 -69q-12 0 -26 8q-2 2 -49 45q-123 106 -199 160zM696 -16l99 -4q61 -4 243 34q16 78 17 201v582q0 72 -45 217l26 4 q37 0 113 -35q37 6 182 53q133 41 160 41q41 0 100.5 -36.5t85.5 -71.5q-33 -72 -62.5 -141.5t-29.5 -157.5v-590q33 0 100.5 5t100.5 5q135 0 172 -59q-18 -61 -105 -62q-57 0 -172.5 15.5t-173.5 15.5q-115 0 -336 -46t-333 -46q-59 0 -142 76zM1122 31l353 37l-2 145 q-2 127 16 360q18 248 18 361l-10 22q-10 6 -22 13q-57 0 -160 -13q-115 -12 -162 -14l-4 -285q35 2 108.5 22.5t114.5 20.5q23 0 39 -19t16 -42q-39 -33 -278 -14v-267q18 4 84 37q51 25 88 25q92 0 102 -51q-31 -41 -274 -41q0 -55 -10 -150q-14 -113 -17 -147z" />
<glyph unicode="a" horiz-adv-x="1656" d="M-10 -188q166 0 397 32q199 33 397 64v342q-55 -10 -110 -21q-66 -12 -109 -12q-96 0 -155 78q199 0 374 33v348q-240 -53 -292 -53q-61 0 -113 16q-41 -78 -121 -166q-72 -76 -143 -149l-43 -7q80 90 188 289q119 221 119 314q0 25 -12 63q-16 53 -19 61 q127 -35 201 -110q-16 -57 -64 -131q-39 -61 -79 -121q127 25 378 82l4 233v32q0 289 -69 362q53 -4 123 -29q88 -31 88 -68q0 -84 -19.5 -249.5t-19.5 -247.5q35 4 131 37q79 26 129 26h4q88 0 139 -49q0 -39 -184 -74q-117 -20 -233 -41l-13 -350q35 6 131 37 q84 27 131 27q68 0 103 -45l-12 -33q-35 -20 -357 -68v-346q76 6 273 39q172 27 272 27q195 0 252 -117l-33 -25l-467 6h-59q-512 0 -938 -131q-35 10 -86 45q-59 39 -84 50z" />
<glyph unicode="b" horiz-adv-x="1738" d="M-41 389q451 137 752 432q-66 61 -170 123q-92 49 -185 100q117 0 217 -59q94 -63 187 -125q63 47 133 162q68 106 92 190l-16 17l-29 8q-78 0 -228.5 -40t-228.5 -40q-127 0 -188 76q432 6 778 121q111 -33 162 -94q-70 -104 -191 -232q-104 -109 -210 -217 q236 -162 430 -223q133 -41 475 -88q-297 -94 -414 -94q-53 0 -270 159q-279 203 -283 205q-424 -367 -792 -395zM78 -141q215 0 637 49q8 57 18 278q-194 -36 -233 -36h-2q-59 0 -95 71q139 0 322 39q0 158 -51 266l18 19q141 -35 178 -78q-20 -63 -57 -191q188 35 207 35 q111 0 143 -57q-68 -25 -176 -35q-160 -14 -178 -16v-287q78 0 236.5 18.5t238.5 18.5q164 0 207 -84h2q-20 -18 -123 -25q-37 -2 -86 -2t-110 2l-149 4h1q-377 0 -676 -59q-139 -29 -147 -29q-53 0 -125 99z" />
<glyph unicode="c" horiz-adv-x="1613" d="M-41 90q0 51 21.5 150.5t21.5 148.5q0 580 -43 688q23 0 67 -16.5t58 -16.5q55 0 162.5 29t163.5 29q31 0 76.5 -30t48.5 -58h2q-2 -10 -33 -60.5t-31 -93.5v-815q0 -41 -18 -80q-23 -47 -60 -57q-14 14 -45 96q-33 92 -47 115q-111 0 -227 -35q-14 -150 -68 -150 q-49 45 -49 156zM88 150q152 26 180 26h2q4 0 70 -41q29 14 37 324l4 368q0 27 6 85.5t6 86.5h2l-4 25q-27 6 -26 6q-51 0 -140 -12q-100 -16 -137 -19q12 -35 16 -116q1 -19 1 -43q0 -47 -3 -113q-2 -117 -2 -129q109 41 123 41q125 0 127 -57q-25 -12 -119 -29 q-127 -23 -129 -23q0 -203 -14 -380zM520 750q186 27 561 77q-8 322 -127 531q182 0 234 -80q-27 -412 -27 -440q45 2 144 26q92 25 143 25q139 -1 166 -62q-20 -37 -207 -49q-121 -4 -240 -8q0 -125 10.5 -378t10.5 -378q0 -98 -37 -213q-45 -131 -113 -178 q-53 43 -128.5 155.5t-127.5 155.5q121 -51 246 -59l29 35q18 186 24 840q-63 -4 -217 -37q-139 -29 -219 -29q-88 0 -125 66zM610 578q68 -12 142 -70q82 -63 82 -123h2q0 -104 -52 -104q-12 0 -24 14q-4 6 -49 102q-31 66 -101 181z" />
<glyph unicode="d" horiz-adv-x="1646" d="M-6 961l12 8q275 -18 275 -21h-2q201 0 593 77t592 77q43 0 101.5 -41t81.5 -80l-21 -12q-37 2 -164 18q-100 12 -164 12q-78 0 -225 -22q-154 -23 -225 -25v-252q35 6 153 39q96 25 156 25q117 0 191 -80q-18 -162 -35 -324q-37 -236 -121 -270l-238 238l209 -52 q12 25 13 25l-7 356l-14 21l-27 6l-278 -45q0 -18 10 -226t10 -350q0 -442 -98 -501q-45 49 -45 508q0 262 12 559q-117 -6 -266 -41l4 -283q2 -129 2 -131q-8 -82 -49 -113q-80 25 -80 154q0 43 10.5 121t10.5 100q0 47 -15 117q-23 111 -22 117q20 -2 74 -17 q47 -14 75 -14q51 0 129 18q63 14 127 27v250q-152 -20 -305 -43q-180 -25 -305 -25q-33 0 -75 32t-60 63zM602 1358q98 0 195 -29q135 -38 135 -110q0 -29 -10 -58q-14 -39 -37 -39q-37 0 -56 15q-43 33 -115.5 111.5t-111.5 109.5z" />
<glyph unicode="e" horiz-adv-x="1757" d="M-49 -188q264 90 446 288q197 215 219 478q-72 -14 -143 -29q-88 -18 -147 -19q-147 0 -205 62q98 4 514 67q12 63 12 158q0 49 -10 256l-207 -22h-4q-24 1 -54 25q-32 26 -48 52q109 8 389 62q246 47 391 47l74 -27l30 -53q-57 -27 -223 -45q-219 -27 -240 -31v-397 q47 8 218 57q135 39 219 39q37 0 87 -27.5t68 -60.5l-18 -20q-80 -14 -293 -33q-186 -14 -291 -41l-12 -94q197 -297 442 -451q225 -143 592 -225q-55 -4 -209 -25q-131 -16 -209 -16q-104 0 -335 279q-145 190 -293 380q-70 -250 -269 -438q-206 -196 -438 -196h-20h-33z " />
<glyph unicode="f" horiz-adv-x="1638" d="M33 406q0 53 26.5 157.5t26.5 157.5q0 27 -20 139q72 0 122 -29q66 8 148 33v129q0 236 -84 365q203 0 203 -94q0 -29 -21.5 -78t-21.5 -78v-219q20 4 86 35q57 28 79 28h1q35 0 101 -25.5t85 -47.5h2q-4 -8 -37 -88q-20 -45 -24 -95q-8 -94 -17 -186q-20 -121 -88 -152 q-43 43 -131 127l84 -18l25 33q10 178 12 354l-21 18q-4 0 -155 -41q0 -455 -6 -604q-16 -489 -82 -530q-74 31 -74 162q0 41 14 104q20 84 23 103q35 213 43 739l-142 -25l-28 -270q-33 -201 -94 -229q-35 27 -35 125zM750 358q16 -2 65 -18q43 -12 68 -12q104 0 178 37 q13 564 14 564v-3q0 303 -76 401q180 0 234 -63q-59 -252 -64 -404q53 4 170 48t142 44q76 0 94 -45q-39 -82 -180 -98q-111 -6 -224 -12q-6 -139 -18 -416q78 20 156 43q109 29 145 29q33 0 98.5 -51.5t85.5 -84.5q-23 -45 -94 -143q-66 -88 -86 -147q63 -14 92 -103 q-117 -28 -302 -28h-13q-87 1 -151 1q-128 0 -166 -3v-82l-37 -35q-23 14 -76 270q-43 219 -55 311zM889 281q6 -109 26 -328q197 6 465 67q60 228 60 275q0 51 -35 51q-100 0 -258 -24q-211 -35 -258 -41z" />
<glyph unicode="g" horiz-adv-x="1763" d="M-51 -90q303 88 383 123q211 88 323 231q-109 150 -170 211q-106 109 -225 143v11l105 4h5q72 0 173 -115q70 -90 137 -182q109 233 108 381l-45 94q-63 -4 -219 -35q-132 -26 -211 -26h-6q-129 0 -188 61q12 4 127 4q164 0 473 99.5t473 99.5q160 0 205 -45 q-33 -37 -277 -84q-158 -29 -315 -58q33 -25 69.5 -52t55.5 -58q-8 -135 -168 -457q211 -195 467 -293q184 -69 534 -135q-53 -4 -252 -25q-158 -16 -256 -16q-106 0 -282 156q-12 10 -246 239q-306 -278 -751 -278h-3zM539 1327q354 0 354 -145q0 -90 -37 -90 q-27 0 -154 102q-82 66 -163 133z" />
<glyph unicode="h" horiz-adv-x="1628" d="M18 639q33 0 96.5 -15.5t96.5 -15.5q74 0 309 43l2 105q0 180 -45 280l-92 -4h-9q-85 0 -151 76q422 23 674 86q10 2 135 45q88 29 135 29q100 0 101 -49q0 -68 -170 -99q-115 -14 -232 -28q47 -31 68 -48q37 -29 55 -61q-6 -41 -41 -133q-33 -84 -35 -133q66 6 230 41 q145 33 231 33q51 0 138 -53.5t114 -98.5q-66 -82 -117 -313q-72 -317 -92 -377q-66 -193 -180 -232l-18 15q-57 172 -107 268q-387 0 -825 -53q-4 -84 -6 -84q-10 -55 -45 -62q-29 14 -101 375q-78 391 -119 463zM225 553q16 -94 25 -270q8 -184 22 -269q98 8 373 56 q233 39 373 39q57 0 107.5 -32t64.5 -83q29 -20 94 -51q123 379 123 678q0 25 -16.5 50t-40.5 25q-86 0 -222 -20q-168 -29 -221 -33l-6 -186l4 -23l17 -14l110 4h13q140 0 169 -82q-14 -35 -67 -35q-180 0 -236 17q-63 20 -75 90q-7 33 -7 180v39q-78 -6 -223 -25 q-8 -289 -227 -450l-27 2q98 113 131 196.5t39 235.5q-193 -31 -297 -39zM520 1044q68 -45 80 -61q16 -27 16 -96l-12 -217q78 8 230 30q6 131 16 392h2q-82 -10 -332 -48z" />
<glyph unicode="i" horiz-adv-x="1804" d="M-68 133q291 0 697 49q-16 90 -117 211l8 19l19 8q147 -20 151 -227l307 28q70 70 140 287q96 -43 139 -115l-14 -18q-115 -43 -185 -142q84 2 266 33q170 29 265 29q159 0 196 -113q-66 -25 -213 -28h7h-228q-387 0 -665 -25q-76 -8 -312 -49q-193 -35 -311 -35 q-96 0 -150 88zM358 1102q242 18 467 63v62q0 143 -63 225q59 0 119 -16q84 -20 84 -62q0 -29 -25 -95.5t-27 -96.5q35 4 187 28q113 16 186 17q95 0 109 -35q-20 -47 -224 -72q-133 -14 -264 -28q0 -55 -4 -158q20 2 103 14q63 10 104 10q135 0 135 -43q0 -36 -109 -36h-6 q-96 0 -283.5 -20.5t-281.5 -20.5q-63 0 -82 51q197 6 342 31v172q-94 -12 -186 -23q-113 -14 -188 -14q-70 0 -93 47zM422 -41l29 25q20 0 59 -12.5t61 -12.5q102 0 306 43t305 43q25 0 110.5 -51t108.5 -76q-14 -35 -99 -93t-104 -97l35 -9l12 -20q0 -45 -272 -68 q-172 -8 -344 -18q-20 -70 -54 -82q-33 109 -65 217q-41 129 -88 211zM430 684l6 18l15 9q76 -10 100 -11q102 0 303 32t301 32q123 -1 182 -64q0 -18 -20 -32q-47 -37 -87 -46.5t-54 -21.5q-25 -25 -72 -111q-223 -18 -250 -22q-143 -14 -248 -45l-16 4q-49 88 -160 258z M571 651l62 -166q141 12 426 52q20 35 41 69q30 50 30 70q0 10 -2 20l-14 4q-231 0 -543 -49zM590 -98l33 -234q43 6 254 21q154 10 249 39q0 4 17 88q8 55 8 92q0 39 -31 39q-203 0 -530 -45z" />
<glyph unicode="j" horiz-adv-x="1802" d="M-66 -240q268 172 392 281q231 205 247 385l-61 -6q-27 27 -27 90q0 25 4.5 70t4.5 59q0 131 -7 180q-12 102 -61 164q12 2 29 2t37 -2q49 -4 63 -4l84 8q20 39 63 205q-59 -4 -188 -37q-121 -33 -190 -33q-47 0 -105 25q-66 25 -88 61q201 39 614 92q451 57 605 58 q113 0 198 -70q-25 -27 -360 -55q-207 -14 -414 -31l64 -51q-45 -43 -125 -137q53 4 186 35q113 28 181 28h5q41 0 103 -39q51 -33 86 -69q-35 -92 -68 -267q-35 -188 -61 -266l-41 -30l-53 90q-117 -27 -416 -64l80 -74l-66 -90q45 8 195 54q120 36 190 36h4q104 0 172 -77 q-84 -102 -254 -304q440 -227 846 -292v-15q-61 -6 -211 -43q-135 -35 -207 -35q-39 0 -227 144q-119 92 -235 182q-307 -228 -547 -228q-17 0 -33 1l-113 6q311 8 625 274q-115 76 -154 99q-88 53 -163 80q-160 -160 -273 -240q-166 -117 -330 -150zM555 467q45 6 197 35 q118 24 192 24h6q16 0 49 -4t50 -4q53 0 53 217v247v-3l-25 25q-174 -23 -522 -74v-133q45 6 184 49q119 37 185 37q49 0 49 -45q0 -12 -33 -23q-96 -29 -385 -51v-121q106 8 178 21q16 2 101 26q61 16 102 17q63 0 63 -25l-6 -12q-4 -8 -159.5 -43t-182.5 -35q-20 0 -49 10 q-45 14 -47 16v-151zM561 170q106 -14 328 -143q37 33 90 104q59 82 59 119h2q-2 37 -24 37q-47 0 -137.5 -37t-137.5 -37q-25 0 -116 37q-23 -25 -64 -80z" />
<glyph unicode="k" horiz-adv-x="1783" d="M-8 -246q238 102 410.5 292t242.5 431q-96 -25 -192 -47q-115 -29 -195 -29l-76 19l-37 47q287 41 660 115q20 143 22 272q-106 -35 -204 -35q-51 0 -101 8q-90 -135 -192 -202l-29 4q113 113 156 233q33 94 47 277q121 -12 158 -62q-16 -49 -125 -217q96 20 290 64 l2 155v17q0 251 -59 356q145 0 203 -94q-27 -135 -64 -406q68 14 281 92l96 -45q-29 -59 -166 -90q-102 -18 -202 -37l-9 -268q39 4 215 39q129 27 217 27q125 0 162 -45l-35 -33q-78 -14 -270 -29q-174 -10 -268 -37q2 -4 61 -59q45 -45 45 -61q0 -51 -24.5 -148.5 t-24.5 -148.5q0 -188 59.5 -251t247.5 -63q223 0 299 82q57 61 111 293q8 -66 35 -166q39 -142 45 -162q-41 -82 -189 -123q-108 -32 -226 -32h-7q-213 0 -326 63q-143 82 -143 281q0 49 14.5 149.5t14.5 149.5q0 88 -21 196l-209 -37q63 -53 64 -83q0 -152 -285 -404 t-446 -252z" />
<glyph unicode="l" horiz-adv-x="1544" d="M33 244q0 63 59 157l98 148q29 47 64 158h27q6 -52 6 -101q0 -158 -41 -291q-59 -190 -178 -190q-35 0 -35 119zM420 45q141 -65 213 -65h2l41 4q39 61 39 460q0 49 7 187.5t7 216.5q0 313 -102 416q61 -4 139 -37q94 -39 94 -88q0 -12 -15.5 -51t-15.5 -44v-1126 q0 -43 -32 -117q-39 -84 -76 -84q-14 0 -143 148q-145 170 -158 180zM1124 735q111 -8 262 -129q158 -129 158 -231q0 -37 -14 -76q-16 -49 -47 -49q-4 0 -41 47q-102 147 -318 438z" />
<glyph unicode="m" horiz-adv-x="1783" d="M-59 711q219 16 383 69l6 187v24q0 181 -58 336q143 -16 205 -125q-20 -100 -41 -203q-24 -116 -24 -196v-6q154 34 173 34h1q84 0 106 -34h2q0 -47 -121 -70q-6 -2 -161 -20q0 -74 3 -222.5t3 -222.5q0 -549 -107 -577q-45 45 -45 190q0 47 13 115q8 57 18 112 q20 162 29 582q-25 -2 -103 -14q-63 -12 -104 -13q-96 0 -178 54zM428 -188q238 147 389 417q139 250 172 547q-122 -26 -153 -26h-2q-49 0 -125 77q176 0 295 33q25 328 24 336q0 96 -29 162q55 -12 123 -47q76 -39 103 -78q-90 -125 -113 -354q25 4 109 24q68 16 108 17 q43 0 107.5 -30t97.5 -63h2q-6 -27 -35 -57q-37 -43 -43 -53q-59 -98 -78 -324q-23 -283 -47 -366q-51 -199 -203 -293q-68 100 -215 293q53 -27 107 -52q70 -32 106 -32h2l29 10q59 76 123 397q55 289 55 430l-14 47l-41 7q-35 0 -94 -17q-80 -25 -94 -26 q-47 -481 -383 -799q-191 -180 -276 -180h-7zM553 268q0 18 33 68q72 113 100 242q39 -7 41 -7q0 -354 -117 -354q-20 0 -38.5 15.5t-18.5 35.5zM1470 500q113 -6 205 -62q109 -68 109 -170q0 -51 -41 -51q-33 0 -139 123q-66 80 -134 160z" />
<glyph unicode="n" horiz-adv-x="1755" d="M-47 639l90 -2h26q110 0 255 29q137 31 276 61q86 193 98 303q-33 -6 -155 -37q-92 -24 -151 -24h-5q-121 0 -139 61q80 8 287 62q184 47 288 47l56 -13l20 -28q-14 -31 -180 -62q4 -20 27.5 -52t29.5 -50q-14 -31 -65 -98q-47 -59 -60 -101q170 29 187 29q67 0 114 -25 q-80 -25 -395 -82q68 -20 68 -168q150 29 202 29l50 -10l18 -19q-51 -20 -135 -32q-109 -18 -135 -25l-7 -121q66 -10 132 -18q88 -23 88 -76q0 -61 -47 -61q-18 0 -82 53q-76 63 -84 67l4 -145q1 -20 1 -38q0 -220 -89 -251q-31 14 -97 92q-43 55 -88 111q74 -14 125 -14 l47 8q23 57 23 154q0 41 -10 223q-37 -6 -162 -45q-100 -31 -164 -31q-51 0 -133 70q80 23 229 36q162 14 230 31q0 127 -29 174q-29 -6 -236 -65q-190 -55 -200 -56q-35 0 -72 41q-25 35 -51 68zM137 31q0 31 53 133q35 68 72 137q53 -57 53 -104q0 -45 -53 -150 q-55 -111 -92 -113q-33 20 -33 97zM356 889q14 8 25 8q49 0 104 -51q27 -25 27 -31q0 -16 -18.5 -48t-32.5 -32q-16 0 -58.5 66.5t-46.5 87.5zM512 1358q158 0 211 -47q22 -21 22 -33q0 -92 -47 -92q-23 0 -59 43q-27 29 -53 59q-25 23 -74 70zM725 -98q156 133 236 352 q71 192 71 416v6q0 190 -55 354q121 29 242 57q98 39 174 183q127 -61 159 -131q-72 -47 -213 -86q-178 -51 -223 -70l27 -283q66 8 235 56q150 41 236 41q141 -1 141 -62q-29 -33 -174 -47q-100 -6 -199 -12q41 -33 43 -35q25 -20 35 -43q-35 -96 -35 -317 q0 -68 4.5 -184.5t4.5 -155.5q0 -322 -82 -379l-23 22q-16 127 -16 287q0 90 7 271.5t7 271.5q0 172 -12 256l-182 -13q-25 -244 -111 -452q-119 -291 -297 -303z" />
<glyph unicode="o" horiz-adv-x="1845" d="M-53 203q223 168 358 317q168 182 264 400q68 -29 119 -99h2q-29 -59 -110 -141q-92 -96 -119 -135q53 -31 69 -109q8 -41 9 -135q0 -551 -97 -551q-34 0 -34 159v9q0 102 14 305t14 303q-109 -106 -223 -196q-170 -129 -250 -129zM170 811q94 72 205 182 q135 135 162 209q12 47 43 137q29 -2 77 -32.5t68 -57.5h2q-15 -74 -249 -258q-229 -180 -305 -180h-3zM674 625q78 10 475 102q293 70 477 70q219 -1 219 -62q0 -35 -61 -41q-6 -2 -88 -2q-258 0 -443 -53q29 -16 56 -33q39 -27 39 -43v-735q0 -51 -53.5 -125t-102.5 -80 q-27 23 -107 133q-90 127 -112 152q59 -20 119 -39q70 -20 120 -21l29 21v557q0 104 -37 207q-49 -6 -198 -41q-125 -29 -201 -29q-88 0 -131 62zM928 1030q117 35 235 70q150 43 234 43q108 0 108 -51q0 -33 -92 -52q-61 -10 -121 -18q-55 -16 -110 -33q-76 -20 -113 -20 q-31 0 -78 19.5t-63 41.5z" />
<glyph unicode="p" horiz-adv-x="1609" d="M8 555q0 12 69.5 150.5t76.5 209.5l10 5q4 -109 51 -109q160 0 383 37q190 33 379 67q29 100 57 203q33 119 33 207q0 55 -29 94q164 0 203 -92q-25 -57 -117 -201q-78 -125 -100 -206q82 6 332 59q59 -23 143 -86.5t111 -112.5l-15 -16q-123 -31 -364 -107 q109 121 108 191l-10 16l-20 8q-164 0 -485.5 -61t-485.5 -61q-33 0 -133 26l4 -65v-11q0 -61 -42 -132q-46 -76 -108 -101q-51 20 -51 88zM12 182l123 -2h32q125 0 298 27q162 27 326 53q-47 92 -101 156l74 -6q57 0 102 71q37 59 47 123l-24 21q-45 -2 -363 -113 q-86 25 -114 92q80 6 264 53q166 43 264 43q100 0 141 -122l-16 -35q-90 -45 -258 -154l78 -113q53 6 217 33q135 20 219 21q138 0 201 -70q0 -49 -140 -49q-47 0 -120.5 6t-79.5 6q-98 0 -293 -12q41 -242 41 -281q0 -127 -39 -245q-53 -152 -148 -185q-47 29 -112 105 q-80 90 -105 112q70 -12 213 -34l35 20q45 109 45 262q0 100 -18 246q-23 -4 -299 -74q-182 -47 -303 -47q-127 0 -187 92zM324 1264q80 -4 125 -60.5t45 -136.5q0 -104 -52 -104q-8 0 -15 11t-19 58q-25 100 -84 232zM635 1311q68 0 117 -52t49 -120q0 -119 -33 -119 q-10 0 -18 12q-45 115 -115 279z" />
<glyph unicode="q" horiz-adv-x="1701" d="M-27 203q166 6 334 14q190 12 332 37q51 98 61 172q68 -6 68 -68q0 -29 -33 -94l240 17l26 77q86 -14 86 -63q66 0 197 22.5t199 22.5q186 0 219 -96l-19 -19q-31 -8 -30 -8q-45 0 -133 14.5t-134 14.5q-137 0 -317 -25q-10 -33 -115 -244q139 -51 279 -102 q158 -74 194 -207l-6 -10q-57 0 -245 109q-213 123 -269 141q-197 -190 -497 -191q-84 0 -123 17q399 66 536 213q-78 27 -155 55q-109 41 -133 78q25 37 71 117q-51 -6 -246 -43q-150 -29 -245 -29q-104 0 -142 78zM186 842q0 29 66 139q72 119 80 184l20 -6l58 -98 q70 8 493 80q303 51 498 51q47 0 119 -59q63 -56 88 -103q-18 -39 -97 -51q-57 -4 -116 -10q-27 -4 -66 -23q-53 -25 -63 -26q35 51 108 153l-8 12q-18 6 -18 7q-188 0 -471 -29q-233 -25 -467 -49q-39 -76 -78 -150q-62 -110 -104 -110h-1q-18 0 -30 37q-10 27 -11 51z M440 827q16 33 47 33q39 0 86 -22q55 6 240 47q152 35 240 35q27 0 103.5 -45t76.5 -70q0 -8 -186 -363q-61 4 -187 4q-53 0 -137 -6q-115 -8 -137 -8q-16 61 -54 182q-37 68 -92 213zM580 811l26 -154q20 2 137 27q82 16 138 16q74 0 73 -18q0 -63 -342 -64q8 -20 12.5 -64 t14.5 -65q217 6 362 23q62 207 62 309q0 27 -37 27l-162 -19q-131 -14 -284 -18zM616 88l13 -20q78 -23 231 -68q61 86 98 217l-251 -8q-47 -86 -91 -121zM719 1391q235 0 235 -121q0 -84 -41 -84q-16 0 -28 10q-27 39 -78 104q-29 35 -88 91z" />
<glyph unicode="r" horiz-adv-x="1746" d="M-45 563q68 16 137 33q80 20 131 47q41 29 125 78l39 14q76 0 111 -51q-8 -27 -50 -89.5t-45 -86.5q-22 -206 -22 -442v-21q129 72 268 188v-24h2q-35 -35 -198 -234q-150 -182 -172 -194q-29 25 -54.5 72t-25.5 81l78 70q18 188 47 567l-21 27q-104 -68 -106 -68 q-57 -30 -119 -30h-4q-80 0 -121 63zM262 1169q158 0 226.5 -43t68.5 -82h2q0 -27 -17.5 -51t-43.5 -24q-14 0 -60.5 53t-175.5 147zM510 -188q223 16 348 41q0 53 -4 786q80 -14 78 -14q53 0 155.5 37.5t153.5 37.5q41 0 105.5 -36.5t85.5 -71.5q-23 -27 -60 -88 q-10 -31 -12 -596q41 0 122 5t122 5q49 0 94 -24q49 -31 49 -78l-23 -23q-39 -6 -38 -6q-59 0 -174 25.5t-175 25.5q-117 0 -343 -44t-343 -44q-88 0 -141 62zM637 684q0 20 53 123.5t60 150.5l26 -6v-63q55 10 377 90q258 65 349 65h3q49 0 129 -57q74 -51 107 -98 q-35 -31 -148 -72q-129 -47 -163 -67q47 106 47 184l-11 27q-27 8 -26 8q-127 0 -330 -47l-328 -74q-10 -123 -16 -152q-25 -102 -82 -104q-47 37 -47 92zM936 129q31 2 92.5 19.5t93.5 17.5q66 0 66 -41q0 -45 -248 -45v-211q104 6 311 33q13 171 13 577q0 145 -37 146 q-53 0 -144 -19q-102 -20 -143 -24q25 -39 25 -68q0 -35 -25 -168q23 4 92 39l70 35q86 0 112 -45q-10 -16 -28 -27q-109 -25 -250 -59v-160zM977 1300q156 0 209 -45q57 -51 57 -104q0 -29 -21.5 -51.5t-50.5 -22.5q-8 0 -92 101q-94 115 -102 122z" />
<glyph unicode="s" horiz-adv-x="1812" d="M-72 608q59 16 150 60q106 51 145 67q113 -41 158 -102q-12 -43 -61.5 -110.5t-63.5 -102.5q20 -82 43 -162q25 -96 25 -168q193 -31 704 -172q11 572 12 572v-1q0 305 -73 463q30 4 59 4q46 0 90 -10q84 47 258 131q111 -23 174 -98q-37 -164 -96 -338 q-90 -266 -154 -266q-47 80 -155 223l170 -20q37 35 59 145q16 88 17 164l-27 82q-82 -14 -240 -62v-801q0 -160 -57 -198q106 -16 201 -17q92 0 274 13.5t272 13.5q-133 -63 -264 -127q-170 -74 -278 -74q-141 0 -486.5 157t-496.5 157q-57 0 -135 -37q-63 -29 -127 -60 q-49 33 -80 93q61 84 209 84q45 0 98 -9q-4 51 -42 152.5t-38 151.5q0 2 36 89t40 103l-27 31q-18 -4 -100 -35l-82 -31q-61 0 -111 45zM117 1169h8q250 0 250 -108h2q0 -92 -47 -92q-10 0 -115 112q-18 18 -98 88zM530 934q39 8 115 35q79 45 141 149q56 94 57 177 q0 8 -1 16q182 -4 225 -92q-16 -23 -174 -132q-100 -68 -201 -135v-456q70 49 139 98q109 76 138 76q-184 -195 -353 -420q-59 72 -65 156l41 36q14 88 14 191q0 121 -12 160q-33 72 -64 141z" />
<glyph unicode="t" horiz-adv-x="1492" d="M51 797l33 6q31 0 90 -24.5t57 -24.5q147 0 410 51v158v11q0 260 -92 406q197 -18 264 -102q-63 -317 -63 -457q55 8 249 56q152 38 249 38h5q47 0 140 -51q100 -55 100 -94q0 -16 -43 -71.5t-49 -84.5q-12 -53 -31 -313q-16 -250 -51 -379q-53 -195 -164 -237l-22 20 q-27 94 -84 279q-172 0 -736 -66v-11q0 -94 -32 -126q-51 25 -123 463q-82 492 -107 553zM236 707q18 -119 38.5 -361t38.5 -362l361 43q-34 48 -34 186q0 62 7 141l-149 -18h-5q-27 0 -57 18q-33 20 -49 45q88 2 266 27q0 106 -10 324q-139 -31 -407 -43zM750 45 q63 6 186 35q117 -25 156 -80q49 -12 77 -16q63 166 78 391q6 86 6 401h2l-38 35q-96 0 -459 -47l-8 -318q33 0 97 21.5t99 21.5q27 0 53.5 -14t26.5 -39q0 -39 -121 -57q-23 -4 -155 -14v-320z" />
<glyph unicode="u" horiz-adv-x="1830" d="M-76 -106q289 186 471 430q162 217 301 565q-207 -29 -219 -29q-125 0 -188 74l106 -2h8q80 0 318 37q24 88 24 194v8q0 94 -20 234q174 -2 233 -94q-49 -106 -69 -156q-37 -88 -53 -162q49 8 211 58q129 41 213 41q117 0 172 -48q-68 -57 -291 -90q-162 -18 -322 -34 q-31 -84 -155 -357q68 6 231 66q152 55 219 55q41 0 90 -18q53 -25 68 -58q-121 -317 -250 -499q150 -123 385 -201q100 -35 424 -113q-180 -57 -520 -57q-25 0 -160 141q-84 88 -166 176q-231 -260 -631 -260q332 84 576 324q-104 109 -154 155q-90 82 -174 132h139 q63 -72 230 -224q92 205 106 336l-28 27q-76 0 -211 -19q-147 -20 -209 -22q-213 -410 -680 -615z" />
<glyph unicode="v" horiz-adv-x="1632" d="M0 625q154 6 393 43q338 53 393 59q0 199 -71 371q-25 -4 -86 -21q-53 -16 -86 -16q-94 0 -172 82q88 10 350 69q221 51 352 52q37 0 88 -25t60 -57q-31 -41 -197 -58q-113 -8 -227 -16q92 -86 92 -264q0 -39 -4 -94q129 27 256 51q145 26 250 26h8q80 0 147 -30 q86 -41 86 -113l-16 -8q-18 0 -158 14q-94 10 -158 10q-193 0 -415 -30q20 -219 20 -561q0 -442 -176 -517q-61 45 -139 142q-100 131 -125 155q59 -20 121 -43q79 -26 116 -26h3q92 0 92 354v232q0 137 -6 253q-57 -10 -308 -77q-190 -51 -313 -52q-121 0 -170 95z" />
<glyph unicode="w" horiz-adv-x="1835" d="M-80 485q0 12 19 47q23 47 24 50q41 106 51 245q25 -33 49 -65q29 -41 29 -78h2q-2 -51 -37 -172q-39 -137 -73 -137q-31 0 -50 41q-14 33 -14 69zM154 -117q0 123 33.5 368t33.5 365l2 596q0 80 -53 146q176 0 176 -103q0 -43 -18.5 -128t-18.5 -128q61 -10 123 -22 q78 -21 94 -70l-12 -33l-33 -14q-49 0 -93 36t-83 73v-985q0 -131 -104 -267q-47 20 -47 166zM371 500q246 287 331 432q139 242 156 520q45 0 100 -25q68 -31 68 -69q0 -31 -49 -98q444 -464 858 -560q-74 -45 -180 -45q-4 0 -178 15q-199 186 -529 549 q-123 -248 -229 -392q-123 -168 -316 -327h-32zM500 -111q0 29 8 76q12 57 14 74q18 184 19 500q80 -7 80 -8l-3 -1q35 0 97.5 20.5t97.5 20.5q31 0 71 -21t50 -50q-35 -111 -35 -244q0 -35 3 -110.5t3 -120.5q0 -307 -78 -308q-6 0 -73 90q-78 104 -82 109q18 -2 76 -20 q47 -16 75 -17v621l-215 -4v-168q25 2 69 8t68 6q16 0 31 -14q0 -51 -168 -52l-8 -137q123 35 150 35l26 -4q0 -55 -174 -55q0 -174 0 -172q-10 -162 -63 -162q-39 0 -39 108zM760 776q35 6 164 49q100 35 168 35q49 0 51 -39h2q0 -39 -131 -61q-94 -16 -166 -17 q-61 0 -88 33zM1028 90q0 4 8 84q6 65 6 162q0 78 -4 176q51 -8 69.5 -28.5t18.5 -69.5q0 -20 -5 -59.5t-5 -59.5q0 -29 5 -85t5 -85q0 -23 -2 -35q-33 -33 -67 -33q-29 0 -29 33zM1071 -172q147 -47 186 -47l33 6v639q0 137 -96 274q53 0 111 -16q79 -23 79 -58 q0 -18 -8 -46q-8 -29 -8 -43l-4 -523q0 -35 13.5 -100t13.5 -98q0 -63 -35 -125q-39 -70 -96 -82q-59 78 -189 219z" />
<glyph unicode="x" horiz-adv-x="1484" d="M131 1264l31 4q25 0 69.5 -17.5t59.5 -17.5q160 0 472 62.5t472 62.5q61 0 147 -33q103 -41 103 -92q0 -31 -55 -74l-7 -20v-461q0 -104 22.5 -309t22.5 -308q0 -125 -26 -239q-37 -156 -113 -199q-33 43 -64.5 142.5t-60.5 142.5q-61 0 -341.5 -17.5t-413.5 -17.5 q-141 0 -193 16q0 -109 -63 -139q-37 43 -37 193q0 57 18.5 168.5t18.5 169.5v763q0 84 -62 220zM266 -82q125 6 434 43q276 33 437 33q43 0 92 -41q68 -55 84 -64q16 82 16 250v643q0 496 -78 496q-193 0 -491 -43q-401 -57 -490 -66q0 -127 4 -415q4 -270 5 -418 q-2 -231 -13 -418zM379 0q156 78 260 217q115 152 115 313q0 -2 -33 78l10 15l23 6q29 0 63 -13q43 -13 43 -38q0 -164 -145 -365q-153 -213 -309 -213h-3h-24zM457 1081q139 0 305 33q8 2 94 25q61 18 94 18q35 0 78 -18q51 -20 51 -47q0 -16 -22 -45q-41 -47 -80 -154 q-8 -4 -21 -10q-8 0 -26.5 5t-26.5 5q-53 0 -137 -12q-70 -10 -137 -21q-6 -25 -21 -39q-35 4 -84 113q-35 74 -67 147zM467 238v489q16 0 49 -8t51 -8q72 0 209 43t211 43q25 0 67 -15.5t56 -31.5q0 -16 -13.5 -48t-13.5 -51v-370q-86 0 -86 81q0 16 3.5 53.5t3.5 55.5v59 q0 74 -5 166q-100 20 -168 21q-53 0 -274 -47v-57q0 -124 -6 -332q-4 -47 -47 -64q-37 8 -37 21zM582 1036q25 -53 43 -135q94 14 284 41q2 12 19 55q10 35 10 58q0 26 -23 26h-2q-68 0 -165 -16q-82 -14 -166 -29zM815 264q72 0 174 -47q117 -54 117 -115 q0 -12 -14.5 -26.5t-26.5 -14.5q-23 0 -53 27q-61 61 -197 176z" />
<glyph unicode="y" horiz-adv-x="1257" d="M0 -338q281 207 387 559q78 260 78 688q0 258 -72 351l25 8q29 0 81 -17.5t81 -17.5q82 0 233.5 62.5t226.5 62.5q47 0 120.5 -41t96.5 -80l-65 -104v-1004q0 -41 15.5 -119t15.5 -116q0 -53 -27 -117q-31 -72 -72 -92q-41 20 -145 141q-113 127 -166 162l-4 12 q160 -53 242 -53l30 10l9 20v918q0 301 -80 354q-76 -8 -217 -39q-147 -31 -218 -41v-342q45 4 152 35q96 27 154 27l61 -23l23 -35q-18 -16 -183 -40q-104 -12 -207 -27l-22 -279q47 4 158 33q100 27 159 27l66 -13l33 -28q-51 -63 -426 -84q-43 -250 -174 -463 q-162 -266 -369 -295z" />
<glyph unicode="z" horiz-adv-x="1757" d="M-49 -84q281 201 514 530v125l72 -26l86 164q47 96 71 170q-29 -2 -92 -23.5t-98 -21.5q-66 0 -164 55q238 35 389 74q80 238 80 364q0 59 -35 125q174 -8 205 -78q-16 -72 -68 -196q-57 -131 -73 -195q70 10 272 74q170 51 272 51q115 0 148 -88q-291 -39 -721 -127 q-74 -156 -113 -225q-68 -125 -139 -211q12 -83 11.5 -225t-11.5 -343q180 14 248 23q139 18 244 47q12 117 24 352q-184 -32 -206 -32h-1q-55 0 -153 49q168 16 362 65l4 168q1 22 1 42q0 58 -9 89q-16 59 -78 105q70 0 127 -25q76 -29 76 -88q0 -45 -15.5 -133t-15.5 -131 q12 2 115 41q67 24 113 24h4q86 0 143 -32q-6 -45 -166 -84q-23 -6 -209 -41v-351q59 4 187 37q119 31 186 31q221 0 219 -111l-33 -14q-74 12 -112 12q-156 0 -463 -52t-465 -52l-127 47l4 -121v-25q0 -139 -63 -163l-33 37l-31 131l31 61v529q-123 -119 -246 -236 q-193 -172 -258 -172h-10z" />
<glyph unicode="{" horiz-adv-x="1884" d="M106 186q78 66 242 146q182 88 248 135v283q-168 -33 -215 -33q-76 0 -133 33q102 0 348 81v232q0 186 -84 328q55 0 113 -19q70 -23 90 -61q-41 -195 -47 -451q94 31 149 31l53 -12q-20 -35 -92 -68q-55 -25 -110 -47v-256q33 23 67 45q43 27 74 25q-59 -57 -141 -121 v-629q0 -33 -38 -80t-71 -63q-43 43 -96 139q-55 106 -90 145q111 -59 174 -67l28 32l15 476q-31 -25 -178 -177q-109 -109 -195 -153q-78 33 -111 106zM877 -141q0 41 14 121.5t14 121.5v410l-24 70q23 4 59 0q47 -4 59 -4q35 0 166 32q115 29 170 47q104 156 111 295 q-266 -59 -414 -59q-66 0 -117 37q74 12 422 100q262 68 424 68q88 0 123 -66l-18 -18l-375 -56q53 -27 53 -77q0 -49 -57 -111q-78 -84 -88 -100q12 2 125 28q74 18 125 19q47 0 101 -27.5t83 -64.5q-20 -70 -42 -140.5t-22 -144.5q0 -57 17.5 -170t17.5 -170 q0 -336 -125 -377q-37 39 -95 128t-97 128q100 -55 145 -55l17 4l26 33l4 57v707l-47 26l-325 -43q23 -18 61 -63q-10 -45 -27 -135q23 4 89 24q53 18 88 19q45 0 67 -33q-10 -37 -117 -53q-72 -6 -143 -13l-51 -172q29 2 92.5 23.5t69.5 21.5q29 0 63.5 -22.5t42.5 -48.5 q-6 -16 -90 -121l35 -21l4 -10l-10 -22l-285 -64l-31 -43q-16 27 -61 295l78 -4l51 10l24 164q-92 -33 -118 -33q-47 0 -99 51q74 8 217 31q12 39 13 98q0 70 -13 105q-53 0 -131 -23q-63 -18 -127 -39q-23 -451 -22 -618q0 -160 -72 -195q-29 45 -28 142zM1073 860 q139 -110 139 -143q0 -23 -19 -41.5t-42 -18.5q-31 0 -55 86q-20 68 -23 117zM1190 129l6 -145l203 36l31 109l-17 27zM1217 1358q125 -4 180 -23q100 -33 100 -125q0 -59 -29 -59q-14 0 -120 92q-66 57 -131 115z" />
<glyph unicode="|" horiz-adv-x="1964" d="M29 254q113 2 227 4q168 6 209 23q66 29 410 310t352 320l-15 23q-14 -4 -411 -143q-301 -106 -383 -107q-156 0 -170 113q18 -2 61 -9.5t68 -7.5q135 0 348 68q127 41 340 129q168 68 190 67q63 0 132 -35.5t90 -88.5q-25 -20 -76 -35q-61 -16 -78 -25 q-145 -74 -410 -303q-256 -221 -424 -297l7 -27q582 -168 716 -196q316 -66 752 -66q-39 -12 -250 -114q-176 -84 -237 -84q-76 0 -525.5 208.5t-582.5 208.5q-35 0 -100.5 -17t-98.5 -17q-111 0 -141 98zM618 1294q330 -6 330 -137h-2q0 -96 -45 -96q-18 0 -135 104 q-74 66 -148 129z" />
<glyph unicode="}" horiz-adv-x="1386" d="M0 920q31 -2 93.5 -16.5t92.5 -14.5q84 0 205 16q100 14 203 29v76q0 274 -96 409q168 0 252 -92q-37 -98 -50 -375q68 6 228 43q145 35 229 35q47 0 127 -57q71 -54 102 -101l-10 -24q-68 -45 -131 -135q-51 -78 -104 -156l41 -20l22 -39l-22 -31q-102 -18 -254 -25 q-127 -6 -252 -10q18 -203 18 -420q0 -444 -100 -512q-39 45 -39 318q0 137 10 354q12 246 13 254l-328 -37l-17 -78l-51 -35q-14 23 -80 291q-70 283 -102 353zM172 842q45 -217 68 -396q113 10 335 43q10 127 11 289v94zM684 500q47 2 186 26q117 18 187 19q25 84 51 168 q29 104 33 170h2l-6 22l-15 10q-137 -6 -415 -22z" />
<glyph unicode="~" horiz-adv-x="1028" d="M0 889l59 2q51 2 113 -31l41 6q174 279 174 432q0 47 -12 93q178 0 233 -64q-18 -29 -178 -213q-121 -143 -133 -225q78 6 250 67q162 57 248 58q45 0 125.5 -44t107.5 -81q-6 -25 -35 -111q-25 -68 -24 -112v-902q0 -41 -45 -108.5t-84 -93.5q-27 49 -52 141 q-27 104 -45 145l-565 -43q0 -125 -53 -147q-59 45 -59 160q0 33 6 95t6 87v764q0 68 -78 125zM172 -131q123 16 248 33q147 16 250 16q104 0 102 -76l43 -18l8 4q33 115 33 348q0 31 -8 91.5t-8 90.5q0 10 5 110.5t5 170.5q0 268 -72 268q-129 0 -305 -33 q-152 -33 -301 -63v-254q51 6 186 47q117 35 187 35q106 0 125 -51q-25 -39 -234 -70q-166 -23 -264 -22v-293q35 6 209 55q127 37 211 37q74 0 74 -74q-39 -41 -494 -71v-281z" />
<glyph unicode="&#xa1;" />
<glyph unicode="&#xa2;" />
<glyph unicode="&#xa3;" />
<glyph unicode="&#xa4;" />
<glyph unicode="&#xa5;" />
<glyph unicode="&#xa6;" />
<glyph unicode="&#xa7;" />
<glyph unicode="&#xa8;" />
<glyph unicode="&#xa9;" />
<glyph unicode="&#xaa;" />
<glyph unicode="&#xab;" />
<glyph unicode="&#xac;" horiz-adv-x="2457" d="M80 -170v1567h2300v-1567h-2300zM127 -88v-35h317v35q-76 0 -88 6q-31 12 -30 78q0 53 2 164v164q49 2 145 -2l10 51l-4 4h-151v74q0 100 6 124q16 66 84 66q35 0 59 -18l23 -111h59q90 268 250 637q84 -211 229 -637h62q33 133 110 406q94 330 123 370q15 8 60 8v37 h-244v-37q102 0 102 -26q0 -49 -80 -318q-39 -131 -79 -264l-238 651h-29q-82 -215 -250 -645q-84 352 -122 551q-8 12 -7 21q0 31 101 30v37h-293v-37q53 0 65.5 -13t26.5 -73q31 -123 64 -243q39 -156 47 -242q-47 0 -120 -66.5t-95 -117.5q-14 -31 -15 -166 q-12 -6 -39.5 -19.5t-42.5 -21.5v-21l82 9l2 -314q0 -66 -17 -81t-85 -15zM440 150q0 -121 70 -203t188 -82q131 0 215 84t84 215q0 117 -73.5 187.5t-190.5 70.5q-125 0 -209 -75t-84 -197zM553 188q0 80 37 136q43 63 117 63q96 0 145 -92q37 -74 37 -180q0 -86 -33 -144 q-41 -68 -121 -67q-94 0 -143 100q-39 80 -39 184zM973 -88v-35h295l-2 35q-61 0 -81 18.5t-20 61.5q0 12 2 49t2 61q0 135 13 168q27 78 137 78q133 0 133 -174q0 -219 -8 -297h198v35q-76 0 -88 25q-2 6 -2 100v188q0 197 -190 197q-106 0 -191 -109q0 90 -8 109 q-86 -39 -190 -45v-35h59q37 -6 37 -33v-352q0 -39 -33 -45h-63zM1311 1090q0 -143 123 -181q113 -16 227 -35q123 -25 123 -139q0 -84 -66.5 -130t-154.5 -46q-51 0 -109 16q-70 23 -84 60q-2 6 -2 98h-39q0 -133 -6 -178q104 -43 217 -43q55 0 105 12q10 -82 10 -147 q-39 -23 -92 -39v-25h92v-321q0 -127 131 -127q25 0 74 12l55 70l-17 22q-27 -31 -65 -30q-57 0 -74 57q-8 27 -8 106v222q154 0 164 -2l12 55h-176q2 68 10 194q123 100 123 209q0 145 -123 183q-113 16 -225 30q-123 25 -123 140q0 78 60 122q53 41 133 41q109 0 168 -53 q10 -23 10 -110h37q0 96 18 163q-106 43 -227 43q-127 0 -209 -59q-92 -70 -92 -190zM1858 522h327v37q-66 0 -78 4q-31 10 -30 62v512q0 115 6 129q14 31 102 30v37h-327v-37q86 0 100 -24q8 -14 8 -115v-528q0 -51 -31 -64q-14 -6 -77 -6v-37zM1927 254q0 -86 82 -119 q76 -18 154 -37q82 -25 82 -88q0 -49 -38 -77.5t-89 -28.5q-86 0 -117 31.5t-31 113.5h-33q0 -23 -4 -67.5t-4 -69.5q0 -47 168 -47q94 0 162 47q78 53 78 143q0 82 -82 115q-78 18 -158 39.5t-80 83.5q0 43 32 68.5t77 25.5q68 0 119 -59q10 -41 10 -72l33 -2q2 47 14 141 q-86 27 -164 27q-211 0 -211 -168z" />
<glyph unicode="&#xad;" horiz-adv-x="1609" d="M37 657l14 19h135q182 219 183 385q0 23 -9 55q-12 47 -12 53q170 0 203 -61q-23 -61 -281 -408q29 6 142 54q100 43 123 43q29 0 92 -41q57 -37 80 -64h2q-6 -23 -39 -88q-25 -55 -25 -92q0 -31 7 -143.5t7 -180.5q0 -258 -92 -346q-25 29 -43 86q-25 70 -35 92 q-49 -14 -120 -22q-61 -4 -123 -10q0 -135 -51 -146l-15 6q-37 82 -43 203q2 -29 2 211q0 236 -102 395zM209 625l18 -267q23 6 84 39q51 29 88 29q68 0 68 -27q0 -18 -102 -57q-63 -23 -127 -47v-250q35 0 103.5 17.5t102.5 17.5q14 0 91 -35q31 96 32 307q-2 -205 -2 299 h2q-4 33 -30 33q-66 0 -166 -25q-127 -31 -162 -34zM690 504q393 391 393 817q188 -20 246 -78q-8 -27 -50 -57.5t-54 -46.5l-240 -375q63 6 209 53q135 43 211 43q41 0 110.5 -37.5t94.5 -72.5q-6 -35 -43 -97q-31 -51 -35 -108l-8 -332q-8 -211 -54 -338 q-61 -170 -202 -252q-51 45 -115 150q-78 127 -106 161q160 -55 215 -55q166 0 170 623l2 186l-9 47q-23 8 -22 8q-59 0 -179 -16t-180 -16l-83 24q-63 -113 -240 -235zM891 500q166 -12 225 -109q25 -37 25 -63h2q-2 -25 -20.5 -51.5t-43.5 -26.5q-16 0 -53 57 q-23 37 -45 76q-35 51 -90 117z" />
<glyph unicode="&#xae;" />
<glyph unicode="&#xaf;" />
<glyph unicode="&#xb0;" />
<glyph unicode="&#xb1;" />
<glyph unicode="&#xb2;" />
<glyph unicode="&#xb3;" />
<glyph unicode="&#xb4;" />
<glyph unicode="&#xb5;" />
<glyph unicode="&#xb6;" />
<glyph unicode="&#xb7;" />
<glyph unicode="&#xb8;" />
<glyph unicode="&#xb9;" />
<glyph unicode="&#xba;" />
<glyph unicode="&#xbb;" />
<glyph unicode="&#xbc;" />
<glyph unicode="&#xbd;" />
<glyph unicode="&#xbe;" />
<glyph unicode="&#xbf;" />
<glyph unicode="&#xc0;" />
<glyph unicode="&#xc1;" />
<glyph unicode="&#xc2;" />
<glyph unicode="&#xc3;" />
<glyph unicode="&#xc4;" />
<glyph unicode="&#xc5;" />
<glyph unicode="&#xc6;" />
<glyph unicode="&#xc7;" />
<glyph unicode="&#xc8;" />
<glyph unicode="&#xc9;" />
<glyph unicode="&#xca;" />
<glyph unicode="&#xcb;" />
<glyph unicode="&#xcc;" />
<glyph unicode="&#xcd;" />
<glyph unicode="&#xce;" />
<glyph unicode="&#xcf;" />
<glyph unicode="&#xd0;" />
<glyph unicode="&#xd1;" />
<glyph unicode="&#xd2;" />
<glyph unicode="&#xd3;" />
<glyph unicode="&#xd4;" />
<glyph unicode="&#xd5;" />
<glyph unicode="&#xd6;" />
<glyph unicode="&#xd7;" />
<glyph unicode="&#xd8;" />
<glyph unicode="&#xd9;" />
<glyph unicode="&#xda;" />
<glyph unicode="&#xdb;" />
<glyph unicode="&#xdc;" />
<glyph unicode="&#xdd;" />
<glyph unicode="&#xde;" />
<glyph unicode="&#xdf;" />
<glyph unicode="&#xe0;" />
<glyph unicode="&#xe1;" />
<glyph unicode="&#xe2;" />
<glyph unicode="&#xe3;" />
<glyph unicode="&#xe4;" />
<glyph unicode="&#xe5;" />
<glyph unicode="&#xe6;" />
<glyph unicode="&#xe7;" />
<glyph unicode="&#xe8;" />
<glyph unicode="&#xe9;" />
<glyph unicode="&#xea;" />
<glyph unicode="&#xeb;" />
<glyph unicode="&#xec;" />
<glyph unicode="&#xed;" />
<glyph unicode="&#xee;" />
<glyph unicode="&#xef;" />
<glyph unicode="&#xf0;" />
<glyph unicode="&#xf1;" />
<glyph unicode="&#xf2;" />
<glyph unicode="&#xf3;" />
<glyph unicode="&#xf4;" />
<glyph unicode="&#xf5;" />
<glyph unicode="&#xf6;" />
<glyph unicode="&#xf7;" />
<glyph unicode="&#xf8;" />
<glyph unicode="&#xf9;" />
<glyph unicode="&#xfa;" />
<glyph unicode="&#xfb;" />
<glyph unicode="&#xfc;" />
<glyph unicode="&#xfd;" />
<glyph unicode="&#xfe;" />
<glyph unicode="&#xff;" />
<glyph unicode="&#x152;" />
<glyph unicode="&#x153;" />
<glyph unicode="&#x178;" />
<glyph unicode="&#x2c6;" />
<glyph unicode="&#x2dc;" />
<glyph unicode="&#x2000;" horiz-adv-x="742" />
<glyph unicode="&#x2001;" horiz-adv-x="1485" />
<glyph unicode="&#x2002;" horiz-adv-x="742" />
<glyph unicode="&#x2003;" horiz-adv-x="1485" />
<glyph unicode="&#x2004;" horiz-adv-x="495" />
<glyph unicode="&#x2005;" horiz-adv-x="371" />
<glyph unicode="&#x2006;" horiz-adv-x="247" />
<glyph unicode="&#x2007;" horiz-adv-x="247" />
<glyph unicode="&#x2008;" horiz-adv-x="185" />
<glyph unicode="&#x2009;" horiz-adv-x="297" />
<glyph unicode="&#x200a;" horiz-adv-x="82" />
<glyph unicode="&#x2010;" horiz-adv-x="1609" d="M37 657l14 19h135q182 219 183 385q0 23 -9 55q-12 47 -12 53q170 0 203 -61q-23 -61 -281 -408q29 6 142 54q100 43 123 43q29 0 92 -41q57 -37 80 -64h2q-6 -23 -39 -88q-25 -55 -25 -92q0 -31 7 -143.5t7 -180.5q0 -258 -92 -346q-25 29 -43 86q-25 70 -35 92 q-49 -14 -120 -22q-61 -4 -123 -10q0 -135 -51 -146l-15 6q-37 82 -43 203q2 -29 2 211q0 236 -102 395zM209 625l18 -267q23 6 84 39q51 29 88 29q68 0 68 -27q0 -18 -102 -57q-63 -23 -127 -47v-250q35 0 103.5 17.5t102.5 17.5q14 0 91 -35q31 96 32 307q-2 -205 -2 299 h2q-4 33 -30 33q-66 0 -166 -25q-127 -31 -162 -34zM690 504q393 391 393 817q188 -20 246 -78q-8 -27 -50 -57.5t-54 -46.5l-240 -375q63 6 209 53q135 43 211 43q41 0 110.5 -37.5t94.5 -72.5q-6 -35 -43 -97q-31 -51 -35 -108l-8 -332q-8 -211 -54 -338 q-61 -170 -202 -252q-51 45 -115 150q-78 127 -106 161q160 -55 215 -55q166 0 170 623l2 186l-9 47q-23 8 -22 8q-59 0 -179 -16t-180 -16l-83 24q-63 -113 -240 -235zM891 500q166 -12 225 -109q25 -37 25 -63h2q-2 -25 -20.5 -51.5t-43.5 -26.5q-16 0 -53 57 q-23 37 -45 76q-35 51 -90 117z" />
<glyph unicode="&#x2011;" horiz-adv-x="1609" d="M37 657l14 19h135q182 219 183 385q0 23 -9 55q-12 47 -12 53q170 0 203 -61q-23 -61 -281 -408q29 6 142 54q100 43 123 43q29 0 92 -41q57 -37 80 -64h2q-6 -23 -39 -88q-25 -55 -25 -92q0 -31 7 -143.5t7 -180.5q0 -258 -92 -346q-25 29 -43 86q-25 70 -35 92 q-49 -14 -120 -22q-61 -4 -123 -10q0 -135 -51 -146l-15 6q-37 82 -43 203q2 -29 2 211q0 236 -102 395zM209 625l18 -267q23 6 84 39q51 29 88 29q68 0 68 -27q0 -18 -102 -57q-63 -23 -127 -47v-250q35 0 103.5 17.5t102.5 17.5q14 0 91 -35q31 96 32 307q-2 -205 -2 299 h2q-4 33 -30 33q-66 0 -166 -25q-127 -31 -162 -34zM690 504q393 391 393 817q188 -20 246 -78q-8 -27 -50 -57.5t-54 -46.5l-240 -375q63 6 209 53q135 43 211 43q41 0 110.5 -37.5t94.5 -72.5q-6 -35 -43 -97q-31 -51 -35 -108l-8 -332q-8 -211 -54 -338 q-61 -170 -202 -252q-51 45 -115 150q-78 127 -106 161q160 -55 215 -55q166 0 170 623l2 186l-9 47q-23 8 -22 8q-59 0 -179 -16t-180 -16l-83 24q-63 -113 -240 -235zM891 500q166 -12 225 -109q25 -37 25 -63h2q-2 -25 -20.5 -51.5t-43.5 -26.5q-16 0 -53 57 q-23 37 -45 76q-35 51 -90 117z" />
<glyph unicode="&#x2012;" horiz-adv-x="1609" d="M37 657l14 19h135q182 219 183 385q0 23 -9 55q-12 47 -12 53q170 0 203 -61q-23 -61 -281 -408q29 6 142 54q100 43 123 43q29 0 92 -41q57 -37 80 -64h2q-6 -23 -39 -88q-25 -55 -25 -92q0 -31 7 -143.5t7 -180.5q0 -258 -92 -346q-25 29 -43 86q-25 70 -35 92 q-49 -14 -120 -22q-61 -4 -123 -10q0 -135 -51 -146l-15 6q-37 82 -43 203q2 -29 2 211q0 236 -102 395zM209 625l18 -267q23 6 84 39q51 29 88 29q68 0 68 -27q0 -18 -102 -57q-63 -23 -127 -47v-250q35 0 103.5 17.5t102.5 17.5q14 0 91 -35q31 96 32 307q-2 -205 -2 299 h2q-4 33 -30 33q-66 0 -166 -25q-127 -31 -162 -34zM690 504q393 391 393 817q188 -20 246 -78q-8 -27 -50 -57.5t-54 -46.5l-240 -375q63 6 209 53q135 43 211 43q41 0 110.5 -37.5t94.5 -72.5q-6 -35 -43 -97q-31 -51 -35 -108l-8 -332q-8 -211 -54 -338 q-61 -170 -202 -252q-51 45 -115 150q-78 127 -106 161q160 -55 215 -55q166 0 170 623l2 186l-9 47q-23 8 -22 8q-59 0 -179 -16t-180 -16l-83 24q-63 -113 -240 -235zM891 500q166 -12 225 -109q25 -37 25 -63h2q-2 -25 -20.5 -51.5t-43.5 -26.5q-16 0 -53 57 q-23 37 -45 76q-35 51 -90 117z" />
<glyph unicode="&#x2013;" />
<glyph unicode="&#x2014;" />
<glyph unicode="&#x2018;" />
<glyph unicode="&#x2019;" />
<glyph unicode="&#x201a;" />
<glyph unicode="&#x201c;" />
<glyph unicode="&#x201d;" />
<glyph unicode="&#x201e;" />
<glyph unicode="&#x2022;" />
<glyph unicode="&#x2026;" />
<glyph unicode="&#x202f;" horiz-adv-x="297" />
<glyph unicode="&#x2039;" />
<glyph unicode="&#x203a;" />
<glyph unicode="&#x205f;" horiz-adv-x="371" />
<glyph unicode="&#x2122;" />
<glyph unicode="&#x25fc;" horiz-adv-x="1361" d="M0 0v1362h1362v-1362h-1362z" />
</font>
</defs>
</svg>
